<svg xmlns="http://www.w3.org/2000/svg" xmlns:xlink="http://www.w3.org/1999/xlink" width="500" zoomAndPan="magnify" viewBox="0 0 375 374.999991" height="500" preserveAspectRatio="xMidYMid meet" version="1.0"><defs><g/><clipPath id="c221bce7ca"><path d="M 260.796875 129 L 341.796875 129 L 341.796875 245.996094 L 260.796875 245.996094 Z M 260.796875 129 " clip-rule="nonzero"/></clipPath><clipPath id="babb0db667"><path d="M 180.316406 177.652344 L 214.066406 177.652344 L 214.066406 209.902344 L 180.316406 209.902344 Z M 180.316406 177.652344 " clip-rule="nonzero"/></clipPath><clipPath id="3b2352ced7"><path d="M 247.953125 139.765625 L 266.941406 139.765625 L 266.941406 158.753906 L 247.953125 158.753906 Z M 247.953125 139.765625 " clip-rule="nonzero"/></clipPath><clipPath id="c1caee0457"><path d="M 257.449219 139.765625 C 252.203125 139.765625 247.953125 144.015625 247.953125 149.261719 C 247.953125 154.503906 252.203125 158.753906 257.449219 158.753906 C 262.691406 158.753906 266.941406 154.503906 266.941406 149.261719 C 266.941406 144.015625 262.691406 139.765625 257.449219 139.765625 Z M 257.449219 139.765625 " clip-rule="nonzero"/></clipPath><clipPath id="4663afee0a"><path d="M 250.554688 144.5625 L 264.054688 144.5625 L 264.054688 163.3125 L 250.554688 163.3125 Z M 250.554688 144.5625 " clip-rule="nonzero"/></clipPath><clipPath id="136c10e607"><path d="M 116.5 175.335938 L 129.753906 175.335938 L 129.753906 190.300781 L 116.5 190.300781 Z M 116.5 175.335938 " clip-rule="nonzero"/></clipPath><clipPath id="43133ff7e0"><path d="M 59.253906 185 L 96 185 L 96 199 L 59.253906 199 Z M 59.253906 185 " clip-rule="nonzero"/></clipPath><clipPath id="c93d504dbd"><path d="M 116.5 175.335938 L 129.753906 175.335938 L 129.753906 190.300781 L 116.5 190.300781 Z M 116.5 175.335938 " clip-rule="nonzero"/></clipPath><clipPath id="75dc8b144c"><path d="M 59.253906 185 L 96 185 L 96 199 L 59.253906 199 Z M 59.253906 185 " clip-rule="nonzero"/></clipPath><clipPath id="f96ab06045"><path d="M 107.347656 203.8125 L 107.492188 203.8125 L 107.492188 203.835938 L 107.347656 203.835938 Z M 107.347656 203.8125 " clip-rule="nonzero"/></clipPath></defs><g fill="#012c18" fill-opacity="1"><g transform="translate(20.349264, 206.903222)"><g><path d="M 4.84375 -66.578125 L 29.140625 -66.578125 C 35.910156 -66.578125 41.394531 -64.828125 45.59375 -61.328125 C 49.789062 -57.835938 51.890625 -52.753906 51.890625 -46.078125 C 51.890625 -39.410156 49.765625 -34.175781 45.515625 -30.375 C 41.265625 -26.582031 35.804688 -24.6875 29.140625 -24.6875 L 20.015625 -24.6875 L 20.015625 0 L 4.84375 0 Z M 20.015625 -36.796875 L 24.296875 -36.796875 C 27.679688 -36.796875 30.460938 -37.484375 32.640625 -38.859375 C 34.816406 -40.234375 35.90625 -42.476562 35.90625 -45.59375 C 35.90625 -48.769531 34.816406 -51.039062 32.640625 -52.40625 C 30.460938 -53.78125 27.679688 -54.46875 24.296875 -54.46875 L 20.015625 -54.46875 Z M 20.015625 -36.796875 "/></g></g></g><g fill="#012c18" fill-opacity="1"><g transform="translate(67.230218, 206.903222)"><g><path d="M 7.671875 -5.125 C 3.796875 -9.34375 1.859375 -14.519531 1.859375 -20.65625 C 1.859375 -26.789062 3.796875 -31.984375 7.671875 -36.234375 C 11.546875 -40.484375 16.46875 -42.609375 22.4375 -42.609375 C 27.925781 -42.609375 32.445312 -40.890625 36 -37.453125 L 36 -41.40625 L 50.28125 -41.40625 L 50.28125 0 L 36.15625 0 L 36.15625 -4.6875 L 36 -4.6875 C 32.445312 -0.757812 27.925781 1.203125 22.4375 1.203125 C 16.46875 1.203125 11.546875 -0.90625 7.671875 -5.125 Z M 19.8125 -27.671875 C 17.957031 -25.847656 17.03125 -23.507812 17.03125 -20.65625 C 17.03125 -17.800781 17.914062 -15.472656 19.6875 -13.671875 C 21.46875 -11.867188 23.8125 -10.96875 26.71875 -10.96875 C 29.507812 -10.96875 31.804688 -11.882812 33.609375 -13.71875 C 35.410156 -15.550781 36.3125 -17.863281 36.3125 -20.65625 C 36.3125 -23.507812 35.382812 -25.847656 33.53125 -27.671875 C 31.675781 -29.503906 29.40625 -30.421875 26.71875 -30.421875 C 23.96875 -30.421875 21.664062 -29.503906 19.8125 -27.671875 Z M 19.8125 -27.671875 "/></g></g></g><g fill="#012c18" fill-opacity="1"><g transform="translate(115.482927, 206.903222)"><g><path d="M 4.84375 0 L 4.84375 -41.40625 L 19.125 -41.40625 L 19.125 -35.421875 L 19.28125 -35.421875 C 19.394531 -35.640625 19.570312 -35.910156 19.8125 -36.234375 C 20.050781 -36.554688 20.570312 -37.117188 21.375 -37.921875 C 22.1875 -38.734375 23.050781 -39.460938 23.96875 -40.109375 C 24.882812 -40.753906 26.066406 -41.332031 27.515625 -41.84375 C 28.972656 -42.351562 30.453125 -42.609375 31.953125 -42.609375 C 33.515625 -42.609375 35.046875 -42.390625 36.546875 -41.953125 C 38.054688 -41.523438 39.164062 -41.097656 39.875 -40.671875 L 41 -40.03125 L 35.03125 -27.921875 C 33.25 -29.429688 30.769531 -30.1875 27.59375 -30.1875 C 25.875 -30.1875 24.394531 -29.804688 23.15625 -29.046875 C 21.925781 -28.296875 21.050781 -27.378906 20.53125 -26.296875 C 20.019531 -25.222656 19.65625 -24.3125 19.4375 -23.5625 C 19.226562 -22.8125 19.125 -22.222656 19.125 -21.796875 L 19.125 0 Z M 4.84375 0 "/></g></g></g><g fill="#012c18" fill-opacity="1"><g transform="translate(148.807754, 206.903222)"><g><path d="M 7.671875 -5.125 C 3.796875 -9.34375 1.859375 -14.519531 1.859375 -20.65625 C 1.859375 -26.789062 3.796875 -31.984375 7.671875 -36.234375 C 11.546875 -40.484375 16.46875 -42.609375 22.4375 -42.609375 C 27.925781 -42.609375 32.445312 -40.890625 36 -37.453125 L 36 -41.40625 L 50.28125 -41.40625 L 50.28125 0 L 36.15625 0 L 36.15625 -4.6875 L 36 -4.6875 C 32.445312 -0.757812 27.925781 1.203125 22.4375 1.203125 C 16.46875 1.203125 11.546875 -0.90625 7.671875 -5.125 Z M 19.8125 -27.671875 C 17.957031 -25.847656 17.03125 -23.507812 17.03125 -20.65625 C 17.03125 -17.800781 17.914062 -15.472656 19.6875 -13.671875 C 21.46875 -11.867188 23.8125 -10.96875 26.71875 -10.96875 C 29.507812 -10.96875 31.804688 -11.882812 33.609375 -13.71875 C 35.410156 -15.550781 36.3125 -17.863281 36.3125 -20.65625 C 36.3125 -23.507812 35.382812 -25.847656 33.53125 -27.671875 C 31.675781 -29.503906 29.40625 -30.421875 26.71875 -30.421875 C 23.96875 -30.421875 21.664062 -29.503906 19.8125 -27.671875 Z M 19.8125 -27.671875 "/></g></g></g><g fill="#012c18" fill-opacity="1"><g transform="translate(197.060463, 206.903222)"><g><path d="M 7.671875 -5.125 C 3.796875 -9.34375 1.859375 -14.519531 1.859375 -20.65625 C 1.859375 -26.789062 3.796875 -31.984375 7.671875 -36.234375 C 11.546875 -40.484375 16.46875 -42.609375 22.4375 -42.609375 C 27.925781 -42.609375 32.445312 -40.890625 36 -37.453125 L 36 -69.40625 L 50.28125 -69.40625 L 50.28125 0 L 36.15625 0 L 36.15625 -4.6875 L 36 -4.6875 C 32.445312 -0.757812 27.925781 1.203125 22.4375 1.203125 C 16.46875 1.203125 11.546875 -0.90625 7.671875 -5.125 Z M 19.8125 -27.671875 C 17.957031 -25.847656 17.03125 -23.507812 17.03125 -20.65625 C 17.03125 -17.800781 17.914062 -15.472656 19.6875 -13.671875 C 21.46875 -11.867188 23.8125 -10.96875 26.71875 -10.96875 C 29.507812 -10.96875 31.804688 -11.882812 33.609375 -13.71875 C 35.410156 -15.550781 36.3125 -17.863281 36.3125 -20.65625 C 36.3125 -23.507812 35.382812 -25.847656 33.53125 -27.671875 C 31.675781 -29.503906 29.40625 -30.421875 26.71875 -30.421875 C 23.96875 -30.421875 21.664062 -29.503906 19.8125 -27.671875 Z M 19.8125 -27.671875 "/></g></g></g><g fill="#012c18" fill-opacity="1"><g transform="translate(245.313172, 206.903222)"><g><path d="M 6.21875 -64.484375 C 7.882812 -66.148438 9.875 -66.984375 12.1875 -66.984375 C 14.5 -66.984375 16.488281 -66.148438 18.15625 -64.484375 C 19.820312 -62.816406 20.65625 -60.828125 20.65625 -58.515625 C 20.65625 -56.203125 19.820312 -54.207031 18.15625 -52.53125 C 16.488281 -50.863281 14.5 -50.03125 12.1875 -50.03125 C 9.875 -50.03125 7.882812 -50.863281 6.21875 -52.53125 C 4.550781 -54.207031 3.71875 -56.203125 3.71875 -58.515625 C 3.71875 -60.828125 4.550781 -62.816406 6.21875 -64.484375 Z M 4.84375 -41.40625 L 4.84375 0 L 19.125 0 L 19.125 -41.40625 Z M 4.84375 -41.40625 "/></g></g></g><g fill="#012c18" fill-opacity="1"><g transform="translate(262.822502, 206.903222)"><g><path d="M 44.875 -41.40625 L 24.375 -10.890625 L 43.25 -10.890625 L 43.25 0 L 0.40625 0 L 20.90625 -30.5 L 3.796875 -30.5 L 3.796875 -41.40625 Z M 44.875 -41.40625 "/></g></g></g><g fill="#012c18" fill-opacity="1"><g transform="translate(301.230861, 206.903222)"><g><path d="M 46.734375 -18.71875 L 16.703125 -18.71875 C 16.703125 -15.8125 17.644531 -13.660156 19.53125 -12.265625 C 21.414062 -10.867188 23.457031 -10.171875 25.65625 -10.171875 C 27.976562 -10.171875 29.8125 -10.476562 31.15625 -11.09375 C 32.5 -11.71875 34.03125 -12.941406 35.75 -14.765625 L 46.078125 -9.609375 C 41.773438 -2.398438 34.617188 1.203125 24.609375 1.203125 C 18.367188 1.203125 13.015625 -0.929688 8.546875 -5.203125 C 4.085938 -9.484375 1.859375 -14.632812 1.859375 -20.65625 C 1.859375 -26.6875 4.085938 -31.851562 8.546875 -36.15625 C 13.015625 -40.457031 18.367188 -42.609375 24.609375 -42.609375 C 31.171875 -42.609375 36.507812 -40.710938 40.625 -36.921875 C 44.75 -33.128906 46.8125 -27.707031 46.8125 -20.65625 C 46.8125 -19.6875 46.785156 -19.039062 46.734375 -18.71875 Z M 17.109375 -26.625 L 32.84375 -26.625 C 32.519531 -28.78125 31.671875 -30.4375 30.296875 -31.59375 C 28.929688 -32.75 27.171875 -33.328125 25.015625 -33.328125 C 22.648438 -33.328125 20.765625 -32.707031 19.359375 -31.46875 C 17.960938 -30.238281 17.210938 -28.625 17.109375 -26.625 Z M 17.109375 -26.625 "/></g></g></g><g clip-path="url(#c221bce7ca)"><path fill="#ffffff" d="M 335.664062 159.039062 C 338.511719 160.359375 340.65625 162.363281 341.667969 164.90625 C 340.820312 160.265625 336.320312 156.875 330.597656 155.484375 C 327.183594 154.613281 323.34375 154.351562 319.382812 154.566406 C 318.019531 154.636719 316.628906 154.777344 315.214844 154.964844 C 317.523438 153.953125 320.421875 153.765625 323.34375 154.351562 C 321.363281 153.457031 319.195312 152.867188 317.125 152.726562 C 317.171875 152.703125 317.195312 152.703125 317.242188 152.679688 C 317.429688 152.585938 317.617188 152.492188 317.804688 152.421875 C 317.902344 152.375 318.019531 152.328125 318.113281 152.304688 C 318.230469 152.28125 318.324219 152.257812 318.441406 152.234375 C 320.304688 151.878906 324.636719 152.773438 324.660156 152.679688 C 324.683594 152.632812 324.660156 152.5625 324.613281 152.515625 C 323.578125 151.480469 322.117188 150.679688 320.65625 150.207031 C 322.683594 150.089844 324.800781 150.488281 326.945312 151.125 C 325.578125 150.441406 324.121094 149.828125 322.613281 149.40625 C 324.828125 149.382812 326.78125 149.429688 329.183594 149.851562 C 327.839844 148.417969 325.792969 147.59375 323.90625 147.214844 C 324.753906 146.816406 325.957031 146.910156 327.417969 147.378906 C 327.839844 147.519531 328.335938 147.664062 328.785156 147.804688 C 329.089844 147.921875 330.410156 148.203125 330.269531 148.109375 C 329.984375 147.921875 329.277344 147.425781 329.019531 147.261719 C 328.59375 147.003906 328.125 146.71875 327.699219 146.484375 L 327.441406 146.34375 C 329.515625 146.0625 331.777344 146.15625 334.132812 146.671875 C 332.90625 145.941406 331.5625 145.332031 330.171875 144.789062 C 332.363281 144.457031 334.765625 144.765625 337.121094 145.613281 C 336.085938 144.929688 334.980469 144.292969 333.777344 143.800781 C 333.800781 143.800781 333.824219 143.800781 333.847656 143.800781 C 334.25 143.777344 334.671875 143.777344 335.074219 143.753906 C 335.496094 143.753906 335.921875 143.753906 336.34375 143.753906 C 336.769531 143.753906 337.21875 143.777344 337.664062 143.777344 C 337.265625 143.539062 336.839844 143.304688 336.394531 143.09375 C 335.96875 142.902344 335.519531 142.691406 335.074219 142.527344 C 334.625 142.363281 334.179688 142.199219 333.707031 142.054688 C 324.683594 139.324219 316.347656 142.691406 311.988281 148.394531 C 309.585938 138.382812 303.859375 131.359375 297.074219 129.125 C 298.867188 130.394531 300.515625 131.925781 301.953125 133.835938 C 301.691406 133.621094 301.386719 133.433594 301.105469 133.246094 C 300.65625 132.964844 300.1875 132.75 299.714844 132.585938 C 298.9375 132.328125 298.160156 132.1875 297.359375 132.1875 C 297.3125 132.1875 297.265625 132.257812 297.265625 132.328125 C 297.265625 132.398438 298.679688 133.339844 299.289062 133.882812 C 299.597656 134.164062 299.902344 134.445312 300.1875 134.777344 L 300.398438 135.011719 L 300.609375 135.25 C 300.75 135.414062 300.890625 135.578125 301.011719 135.742188 C 301.199219 135.976562 301.386719 136.261719 301.550781 136.542969 C 300.421875 136.214844 299.21875 136.167969 297.996094 136.730469 C 299.832031 137.886719 301.574219 138.851562 303.367188 140.078125 C 301.953125 139.984375 300.46875 140.5 299.078125 141.347656 C 300.820312 141.136719 302.519531 141.585938 303.859375 142.855469 C 302.894531 142.855469 301.363281 143.1875 301.363281 143.304688 C 301.363281 143.375 301.433594 143.46875 301.433594 143.46875 C 302.398438 143.941406 303.25 144.625 304.097656 145.378906 C 304.683594 145.941406 305.367188 146.484375 305.910156 147.144531 C 305.886719 147.144531 305.886719 147.144531 305.863281 147.144531 C 303.859375 145.117188 301.503906 143.824219 298.464844 142.644531 C 293.871094 140.761719 288.644531 140.476562 284.167969 142.527344 C 283.507812 142.808594 282.847656 143.1875 282.234375 143.585938 C 281.929688 143.777344 281.621094 144.011719 281.339844 144.222656 C 281.246094 144.269531 281.222656 144.386719 281.246094 144.507812 C 281.292969 144.625 284.96875 143.5625 286.6875 143.46875 C 285.34375 144.175781 284.144531 145.285156 283.273438 146.554688 C 283.25 146.601562 283.226562 146.671875 283.273438 146.71875 C 283.320312 146.792969 285.25 145.777344 286.167969 145.496094 C 287.230469 145.164062 288.289062 145 289.371094 145.023438 C 288.21875 145.707031 287.113281 146.648438 286.453125 147.875 C 286.429688 147.945312 286.40625 148.015625 286.453125 148.085938 C 286.664062 148.132812 289.421875 146.957031 290.480469 147.003906 C 290.339844 147.167969 290.199219 147.332031 290.078125 147.496094 L 289.585938 148.15625 C 289.371094 148.488281 289.136719 148.863281 288.925781 149.21875 C 288.808594 149.453125 288.476562 150.066406 288.359375 150.300781 C 288.546875 150.113281 289.019531 149.664062 289.207031 149.476562 C 289.492188 149.242188 289.820312 148.980469 290.101562 148.746094 L 290.738281 148.320312 C 292.175781 147.496094 293.425781 147.261719 294.367188 147.285156 C 292.789062 148.15625 291.375 149.429688 290.269531 150.867188 C 291.707031 149.851562 293.261719 149.148438 294.933594 148.816406 C 294.039062 149.453125 292.484375 151.148438 292.507812 151.21875 C 292.578125 151.3125 295.546875 150.160156 296.769531 150.066406 C 295.664062 150.679688 294.648438 151.457031 293.753906 152.304688 C 295.261719 151.457031 296.863281 150.914062 298.488281 150.679688 C 297.710938 151.359375 297.074219 152.234375 296.699219 153.152344 C 296.652344 153.152344 296.628906 153.152344 296.582031 153.175781 C 293.238281 153.976562 290.007812 155.34375 287.160156 157.226562 C 283.058594 160.03125 279.761719 163.871094 277.125 167.945312 C 277.078125 168.039062 277.078125 168.132812 277.148438 168.226562 C 277.242188 168.320312 278.511719 167.191406 279.054688 166.695312 C 278.820312 167.144531 278.609375 167.59375 278.464844 168.0625 C 278.441406 168.109375 278.511719 168.179688 278.558594 168.132812 C 279.808594 167.074219 280.890625 166.0625 282 164.90625 C 281.363281 166.34375 280.988281 167.945312 280.890625 169.476562 C 281.789062 167.097656 283.320312 164.976562 285.414062 163.5625 C 284.78125 165.070312 284.425781 166.789062 284.519531 168.417969 C 284.566406 168.441406 285.910156 166.507812 286.40625 165.707031 C 286.898438 164.835938 287.960938 163.023438 288.453125 162.171875 C 287.867188 163.824219 287.558594 165.660156 287.984375 167.378906 C 287.984375 167.378906 288.453125 165.210938 288.878906 164.222656 C 289.066406 163.726562 289.300781 163.257812 289.585938 162.808594 C 289.84375 162.339844 290.125 161.914062 290.433594 161.492188 C 290.929688 160.785156 291.585938 160.21875 292.152344 159.558594 C 292.152344 159.558594 292.152344 159.558594 292.152344 159.582031 C 290.878906 161.539062 290.007812 163.824219 289.703125 166.085938 C 290.199219 164.859375 290.832031 163.726562 291.585938 162.714844 C 291.5625 163.703125 291.707031 164.648438 291.894531 165.589844 C 291.917969 165.660156 291.941406 165.707031 292.011719 165.730469 C 292.105469 165.777344 293.046875 163.703125 293.519531 162.878906 C 293.964844 162.078125 294.460938 161.347656 295.003906 160.808594 C 294.4375 162.007812 294.296875 163.421875 294.4375 164.71875 C 294.671875 162.667969 295.804688 160.855469 297.570312 159.816406 C 297.027344 161.207031 296.839844 162.878906 297.265625 164.269531 C 296.441406 165.332031 295.734375 166.484375 295.121094 167.734375 C 294.933594 168.109375 294.765625 168.511719 294.578125 168.910156 C 294.414062 169.3125 294.25 169.710938 294.109375 170.113281 C 292.929688 173.316406 292.292969 176.875 292.128906 180.5 C 292.105469 180.761719 292.105469 181.042969 292.105469 181.300781 C 291.964844 181.417969 291.824219 181.5625 291.679688 181.679688 C 290.054688 183.28125 288.855469 185.449219 288.171875 187.757812 C 288.242188 185.683594 289.066406 183.65625 290.457031 182.078125 C 289.253906 182.855469 288.195312 183.894531 287.441406 185.117188 C 287.441406 185.09375 287.441406 185.046875 287.441406 185.023438 C 287.441406 184.859375 287.441406 184.695312 287.464844 184.527344 C 287.464844 184.433594 287.488281 184.363281 287.488281 184.269531 C 287.511719 184.199219 287.535156 184.105469 287.558594 184.035156 C 287.960938 182.691406 289.914062 180.429688 289.867188 180.382812 C 289.84375 180.335938 289.796875 180.335938 289.75 180.335938 C 288.785156 180.429688 287.792969 180.949219 287.039062 181.609375 C 287.628906 180.265625 288.570312 179.160156 289.65625 178.167969 C 288.785156 178.664062 287.9375 179.253906 287.183594 179.960938 C 287.890625 178.546875 288.546875 177.367188 289.585938 176.097656 C 288.265625 176.191406 287.089844 177.039062 286.238281 178.027344 C 286.285156 177.296875 286.710938 176.589844 287.464844 175.90625 C 287.699219 175.71875 287.9375 175.484375 288.171875 175.269531 C 288.335938 175.152344 288.949219 174.46875 288.855469 174.492188 C 288.644531 174.566406 288.125 174.753906 287.914062 174.824219 C 287.605469 174.964844 287.300781 175.105469 287.015625 175.246094 L 286.851562 175.34375 C 287.347656 173.90625 288.148438 172.539062 289.230469 171.3125 C 288.382812 171.714844 287.558594 172.210938 286.78125 172.796875 C 287.277344 171.265625 288.265625 169.925781 289.539062 168.886719 C 288.785156 169.171875 288.03125 169.546875 287.347656 170.019531 C 287.347656 169.996094 287.371094 169.996094 287.371094 169.972656 C 287.488281 169.710938 287.628906 169.453125 287.746094 169.171875 C 287.890625 168.910156 288.03125 168.652344 288.148438 168.371094 C 288.289062 168.109375 288.453125 167.851562 288.59375 167.566406 C 288.3125 167.710938 288.03125 167.851562 287.769531 167.992188 C 287.511719 168.15625 287.253906 168.320312 286.992188 168.511719 C 286.734375 168.699219 286.5 168.910156 286.261719 169.097656 C 281.292969 173.644531 280.941406 181.394531 283.671875 187.308594 C 281.152344 185.941406 278.558594 185.542969 275.261719 185.496094 C 270.785156 185.355469 266.167969 186.71875 262.871094 189.78125 C 262.375 190.230469 261.90625 190.726562 261.480469 191.242188 C 261.269531 191.503906 261.082031 191.761719 260.867188 192.019531 C 260.796875 192.089844 260.820312 192.207031 260.867188 192.28125 C 260.941406 192.375 263.835938 190.371094 265.296875 189.757812 C 264.332031 190.75 263.578125 192.019531 263.175781 193.339844 C 263.152344 193.386719 263.175781 193.433594 263.226562 193.480469 C 263.273438 193.527344 264.660156 192.113281 265.390625 191.597656 C 266.214844 191.007812 267.089844 190.535156 268.054688 190.230469 C 267.230469 191.148438 266.546875 192.257812 266.289062 193.433594 C 266.261719 193.480469 266.289062 193.550781 266.335938 193.597656 C 266.546875 193.574219 268.597656 191.785156 269.515625 191.480469 C 269.445312 191.644531 269.375 191.832031 269.300781 191.996094 L 269.066406 192.703125 C 268.972656 193.035156 268.878906 193.410156 268.785156 193.761719 C 268.738281 194 268.644531 194.589844 268.597656 194.824219 C 268.714844 194.613281 268.996094 194.09375 269.113281 193.90625 C 269.300781 193.621094 269.515625 193.316406 269.703125 193.035156 L 270.128906 192.492188 C 271.140625 191.382812 272.175781 190.796875 273 190.535156 C 271.871094 191.738281 271 193.199219 270.433594 194.730469 C 271.398438 193.457031 272.554688 192.398438 273.917969 191.644531 C 273.308594 192.421875 272.433594 194.28125 272.484375 194.351562 C 272.578125 194.421875 274.816406 192.5625 275.851562 192.089844 C 275.074219 192.9375 274.390625 193.859375 273.847656 194.847656 C 274.933594 193.691406 276.15625 192.773438 277.5 192.066406 C 277.5 192.066406 277.5 192.066406 277.5 192.089844 C 277.003906 192.890625 276.699219 193.789062 276.628906 194.660156 C 277.925781 192.84375 280.28125 192.113281 282.375 192.46875 C 282.117188 192.632812 281.882812 192.820312 281.644531 193.011719 C 279.359375 193.953125 277.359375 195.4375 276.039062 197.484375 C 274.671875 199.722656 273.683594 202.195312 273.238281 204.835938 C 272.625 208.652344 273.09375 212.679688 274.085938 216.519531 C 274.109375 216.589844 274.179688 216.660156 274.273438 216.660156 C 274.367188 216.660156 274.414062 215.316406 274.414062 214.730469 C 274.53125 215.105469 274.695312 215.484375 274.910156 215.859375 C 274.933594 215.90625 275.003906 215.90625 275.003906 215.835938 C 275.050781 214.539062 275.050781 213.363281 275.003906 212.113281 C 275.496094 213.316406 276.25 214.46875 277.125 215.4375 C 276.179688 213.527344 275.78125 211.453125 276.109375 209.523438 C 276.652344 210.773438 277.5 211.996094 278.511719 212.914062 C 278.558594 212.914062 278.136719 211.054688 277.925781 210.300781 C 277.6875 209.523438 277.171875 207.875 276.957031 207.097656 C 277.617188 208.390625 278.558594 209.664062 279.808594 210.464844 C 279.808594 210.464844 278.773438 208.910156 278.417969 208.109375 C 278.230469 207.710938 278.089844 207.308594 277.949219 206.886719 C 277.804688 206.484375 277.710938 206.058594 277.617188 205.636719 C 277.476562 204.953125 277.5 204.269531 277.429688 203.585938 C 277.878906 205.425781 278.773438 207.261719 279.949219 208.769531 C 279.480469 207.78125 279.171875 206.765625 278.984375 205.753906 C 279.574219 206.367188 280.210938 206.859375 280.867188 207.332031 C 280.917969 207.355469 280.964844 207.378906 281.035156 207.355469 C 281.128906 207.332031 280.398438 205.613281 280.1875 204.859375 C 279.949219 204.128906 279.785156 203.445312 279.761719 202.832031 C 280.164062 203.847656 280.941406 204.789062 281.789062 205.472656 C 280.703125 204.105469 280.234375 202.433594 280.585938 200.878906 C 281.128906 202.007812 282.023438 203.117188 283.082031 203.726562 C 282.304688 202.503906 282.1875 201.113281 282.496094 199.886719 C 282.988281 200.855469 283.648438 201.726562 284.378906 202.457031 C 284.496094 202.574219 284.683594 202.457031 284.613281 202.316406 C 284.214844 201.347656 283.882812 200.382812 283.789062 199.464844 C 284.167969 200.148438 284.613281 200.785156 285.132812 201.347656 C 284.804688 200.078125 284.753906 198.875 285.015625 197.746094 C 285.179688 198.429688 285.414062 199.085938 285.675781 199.699219 C 285.816406 197.390625 286.570312 195.34375 287.9375 193.667969 C 287.984375 193.621094 288.03125 193.574219 288.054688 193.527344 C 293.988281 211.125 299.03125 225.542969 298.984375 245.824219 C 298.984375 245.824219 300.089844 245.871094 303.296875 245.824219 C 302.988281 225.660156 297.546875 211.878906 289.492188 192.539062 C 289.515625 192.539062 289.515625 192.539062 289.539062 192.5625 C 289.65625 192.609375 289.773438 192.679688 289.890625 192.75 L 290.246094 192.984375 C 290.457031 193.152344 290.738281 193.386719 290.929688 193.574219 C 291.023438 193.667969 291.164062 193.8125 291.257812 193.90625 C 291.707031 194.351562 292.082031 194.871094 292.507812 195.414062 C 292.554688 195.484375 292.648438 195.4375 292.601562 195.367188 C 292.292969 194.589844 291.894531 193.761719 291.398438 193.058594 C 291.351562 193.011719 291.328125 192.9375 291.28125 192.890625 C 292.410156 193.410156 293.425781 194.257812 294.273438 195.34375 C 293.941406 194.09375 293.378906 192.867188 292.625 191.785156 C 293.046875 192.042969 293.449219 192.375 293.847656 192.75 C 293.964844 192.890625 294.109375 193.011719 294.226562 193.152344 C 294.34375 193.292969 294.460938 193.433594 294.578125 193.597656 C 294.695312 193.738281 294.816406 193.90625 294.933594 194.046875 C 294.933594 194.046875 295.285156 194.515625 295.285156 194.515625 C 295.355469 194.613281 295.472656 194.542969 295.425781 194.445312 C 295.308594 194.070312 295.191406 193.667969 295.027344 193.292969 C 294.957031 193.105469 294.863281 192.914062 294.765625 192.726562 C 294.671875 192.539062 294.554688 192.351562 294.460938 192.160156 C 294.414062 192.089844 294.367188 191.996094 294.320312 191.925781 C 295.214844 192.136719 296.039062 192.5625 296.769531 193.339844 C 297.242188 193.835938 297.664062 194.445312 297.996094 195.082031 C 297.878906 194.730469 297.78125 194.375 297.617188 194.023438 C 297.148438 192.914062 296.394531 191.925781 295.449219 191.21875 C 297.125 192.207031 298.558594 193.738281 299.691406 195.507812 C 299.480469 194.542969 299.171875 193.550781 298.75 192.609375 C 299.527344 193.386719 300.210938 194.28125 300.867188 195.175781 C 300.964844 195.292969 300.941406 194.046875 300.796875 193.550781 C 301.339844 194.164062 302.496094 195.929688 302.496094 195.765625 C 302.519531 195.292969 302.46875 194.777344 302.375 194.28125 C 303.554688 195.128906 304.636719 196.121094 305.484375 197.460938 C 305.273438 196.308594 304.804688 195.082031 304.214844 194 C 305.910156 194.964844 307.324219 196.566406 308.359375 198.429688 C 308.078125 197.4375 307.699219 196.449219 307.183594 195.507812 C 308.171875 196.191406 310.222656 197.601562 310.503906 197.699219 C 309.515625 213.433594 307.183594 230.160156 304.730469 245.824219 L 310.363281 245.824219 C 312.175781 229.851562 313.894531 213.480469 314.179688 197.296875 C 314.320312 189.21875 314.085938 181.113281 313.472656 173.082031 C 313.1875 169.335938 312.8125 165.613281 312.363281 161.890625 C 313.449219 163.46875 313.917969 165.542969 313.660156 167.402344 C 314.320312 165.917969 314.625 164.199219 314.390625 162.550781 C 316.085938 164.058594 317.148438 166.507812 316.535156 168.839844 C 317.195312 168.179688 317.710938 167.308594 318.042969 166.320312 C 318.394531 167.921875 318.488281 169.59375 318.300781 171.265625 C 318.726562 170.136719 319.03125 168.933594 319.171875 167.710938 C 319.527344 168.886719 319.503906 171.996094 319.574219 172.042969 C 319.667969 172.089844 319.785156 172.042969 319.832031 171.949219 C 320.28125 171.03125 320.65625 170.042969 320.867188 169.003906 C 321.175781 170.679688 321.105469 172.351562 320.726562 174.046875 C 321.574219 172.539062 322.164062 170.796875 322.375 169.050781 C 322.519531 169.289062 322.683594 169.5 322.824219 169.710938 C 322.964844 170.703125 322.917969 171.714844 322.753906 172.773438 L 322.613281 173.503906 C 322.519531 173.859375 322.398438 174.234375 322.304688 174.589844 C 322.210938 174.824219 322 175.414062 321.90625 175.648438 C 322.070312 175.460938 322.492188 174.941406 322.636719 174.753906 C 322.847656 174.445312 323.105469 174.117188 323.320312 173.789062 L 323.71875 173.105469 C 323.8125 172.9375 323.90625 172.75 324 172.585938 C 324.402344 173.550781 324.332031 176.425781 324.378906 176.660156 C 324.449219 176.730469 324.566406 176.707031 324.636719 176.636719 C 325.4375 175.601562 325.839844 174.28125 326.050781 172.960938 C 326.828125 174.894531 326.96875 176.96875 326.617188 179.039062 C 326.617188 179.085938 326.640625 179.160156 326.6875 179.183594 C 326.757812 179.230469 327.863281 177.273438 328.125 176.214844 C 328.21875 175.789062 328.289062 175.367188 328.335938 174.917969 C 328.855469 176.566406 329.160156 180.3125 329.277344 180.335938 C 329.394531 180.359375 329.515625 180.289062 329.539062 180.171875 C 330.246094 177.390625 330.125 174.351562 329.300781 171.503906 C 328.265625 167.921875 326.144531 164.8125 323.578125 162.148438 C 323.90625 161.46875 324.097656 160.738281 324.074219 160.007812 C 324.074219 160.007812 324.074219 159.984375 324.074219 159.984375 C 325.0625 160.996094 325.816406 162.171875 326.214844 163.515625 C 326.285156 162.078125 326.027344 160.691406 325.460938 159.371094 C 326.828125 160.382812 327.558594 161.796875 327.984375 163.328125 C 328.054688 162.148438 327.960938 160.972656 327.511719 159.890625 C 328.925781 161.066406 329.726562 162.644531 329.984375 164.386719 C 330.433594 162.597656 330.363281 160.761719 329.679688 159.207031 C 330.808594 160.054688 331.46875 161.183594 331.753906 162.480469 L 331.871094 163.09375 C 331.894531 163.398438 331.917969 163.726562 331.941406 164.035156 C 331.941406 164.246094 331.894531 164.8125 331.894531 165.023438 C 332.011719 164.8125 332.269531 164.222656 332.386719 164.011719 C 332.503906 163.679688 332.671875 163.304688 332.789062 162.976562 L 332.976562 162.269531 C 333.070312 161.867188 333.140625 161.46875 333.164062 161.066406 C 334.203125 161.984375 334.980469 163.09375 335.097656 164.457031 C 335.472656 163.1875 335.261719 161.914062 334.789062 160.808594 C 337.027344 161.960938 338.488281 163.777344 338.652344 166.035156 C 339.171875 163.234375 337.851562 160.902344 335.664062 159.039062 Z M 309.183594 160.476562 Z M 296.722656 153.175781 C 298.679688 151.691406 301.363281 151.808594 303.414062 152.988281 C 303.296875 153.011719 303.175781 153.058594 303.035156 153.082031 C 300.964844 152.726562 298.820312 152.703125 296.722656 153.175781 Z M 300.304688 160.476562 C 300.1875 160.808594 300.089844 161.136719 299.996094 161.492188 C 299.714844 161.726562 299.433594 161.960938 299.148438 162.222656 C 298.488281 162.832031 297.878906 163.515625 297.289062 164.246094 C 297.710938 162.550781 298.890625 161.277344 300.304688 160.476562 Z M 297.710938 172.867188 C 297.878906 174.257812 298.183594 175.695312 298.679688 176.945312 C 297.996094 177.226562 297.335938 177.554688 296.675781 177.933594 C 296.746094 176.121094 297.050781 174.375 297.710938 172.867188 Z M 295.992188 176.285156 C 296.0625 176.898438 296.15625 177.53125 296.296875 178.144531 C 295.875 178.40625 295.449219 178.664062 295.050781 178.945312 C 295.378906 178.027344 295.757812 176.96875 295.992188 176.285156 Z M 293.09375 180.453125 C 293.402344 179.511719 293.730469 178.59375 294.0625 177.675781 C 294.085938 178.308594 294.15625 178.945312 294.226562 179.558594 C 293.824219 179.839844 293.449219 180.125 293.09375 180.453125 Z M 310.480469 197.296875 C 310.480469 197.460938 310.457031 197.628906 310.457031 197.769531 C 310.101562 197.015625 309.703125 196.308594 309.277344 195.601562 C 309.703125 195.882812 310.125 196.191406 310.527344 196.472656 C 310.503906 196.753906 310.503906 197.015625 310.480469 197.296875 Z M 310.597656 194.824219 C 309.066406 193.105469 307.347656 191.597656 305.507812 190.347656 C 305.203125 190.136719 304.875 189.949219 304.566406 189.734375 C 304.238281 189.546875 303.90625 189.359375 303.601562 189.195312 C 301.765625 188.226562 299.785156 187.589844 297.851562 187.378906 C 296.675781 187.238281 295.519531 187.261719 294.390625 187.425781 C 294.273438 187.449219 294.15625 187.472656 294.039062 187.496094 C 295.332031 186.742188 296.933594 186.484375 298.371094 187.027344 C 297.878906 186.367188 297.171875 185.847656 296.371094 185.472656 C 297.757812 185.308594 299.171875 185.355469 300.585938 185.683594 C 299.667969 185.210938 298.679688 184.835938 297.640625 184.601562 C 298.679688 184.410156 301.292969 184.695312 301.363281 184.625 C 301.410156 184.554688 301.386719 184.433594 301.316406 184.386719 C 300.585938 183.894531 299.761719 183.492188 298.890625 183.210938 C 300.328125 183.09375 301.742188 183.304688 303.128906 183.777344 C 301.929688 182.878906 300.492188 182.195312 299.03125 181.867188 C 299.242188 181.773438 299.433594 181.632812 299.644531 181.539062 C 300.492188 181.492188 301.363281 181.632812 302.234375 181.867188 L 302.847656 182.054688 C 303.128906 182.171875 303.460938 182.316406 303.742188 182.433594 C 303.929688 182.527344 304.425781 182.785156 304.613281 182.878906 C 304.449219 182.714844 304.074219 182.292969 303.929688 182.148438 C 303.695312 181.9375 303.4375 181.679688 303.175781 181.46875 L 302.636719 181.042969 C 302.496094 180.949219 302.351562 180.855469 302.210938 180.761719 C 303.058594 180.5 305.484375 180.808594 305.699219 180.785156 C 305.769531 180.714844 305.746094 180.617188 305.699219 180.546875 C 304.898438 179.746094 303.789062 179.253906 302.707031 178.96875 C 304.402344 178.453125 306.167969 178.523438 307.914062 179.015625 C 307.960938 179.015625 308.007812 179.015625 308.03125 178.96875 C 308.078125 178.921875 306.523438 177.769531 305.652344 177.4375 C 305.296875 177.320312 304.945312 177.203125 304.566406 177.132812 C 306.003906 176.824219 309.207031 176.875 309.230469 176.777344 C 309.277344 176.683594 309.207031 176.566406 309.113281 176.519531 C 306.828125 175.648438 304.238281 175.484375 301.742188 175.953125 C 300.726562 176.144531 299.738281 176.449219 298.773438 176.851562 C 298.726562 175.058594 299.054688 173.433594 299.550781 171.902344 C 299.785156 172.46875 300.042969 172.988281 300.375 173.433594 C 300.46875 173.597656 300.398438 171.148438 300.515625 170.183594 C 300.703125 170.773438 301.457031 171.996094 301.457031 171.832031 C 301.503906 170.535156 301.527344 169.195312 301.742188 167.945312 C 301.953125 169.121094 302.304688 170.324219 302.707031 171.382812 C 302.589844 168.910156 302.941406 166.484375 303.8125 164.433594 C 303.414062 165.730469 303.34375 167.191406 303.625 168.582031 C 303.695312 169.003906 303.835938 169.429688 303.953125 169.851562 C 303.859375 168.980469 303.835938 168.132812 303.976562 167.332031 C 304.144531 166.109375 304.636719 165.140625 305.296875 164.363281 C 305.296875 164.480469 305.296875 164.578125 305.320312 164.695312 C 305.34375 164.953125 305.367188 165.1875 305.390625 165.425781 C 305.4375 165.660156 305.484375 165.917969 305.53125 166.15625 C 305.628906 166.625 305.769531 167.097656 305.886719 167.542969 C 305.910156 167.664062 306.074219 167.664062 306.074219 167.519531 C 306.074219 167.496094 306.097656 166.839844 306.097656 166.8125 C 306.097656 166.578125 306.097656 166.367188 306.121094 166.132812 C 306.144531 165.917969 306.144531 165.683594 306.167969 165.472656 C 306.191406 165.257812 306.238281 165.046875 306.261719 164.835938 C 306.382812 164.199219 306.523438 163.609375 306.734375 163.09375 C 306.710938 164.648438 306.992188 166.203125 307.464844 167.640625 C 307.558594 166.035156 307.9375 164.554688 308.617188 163.304688 C 308.617188 163.375 308.617188 163.46875 308.617188 163.539062 C 308.59375 164.554688 308.761719 165.589844 308.972656 166.578125 C 308.996094 166.671875 309.089844 166.671875 309.089844 166.554688 C 309.113281 165.777344 309.136719 165 309.253906 164.269531 C 309.277344 164.105469 309.300781 163.894531 309.347656 163.726562 C 309.394531 163.421875 309.515625 163.023438 309.609375 162.714844 L 309.773438 162.246094 C 309.84375 162.101562 309.914062 161.960938 309.984375 161.820312 C 310.03125 161.75 310.078125 161.679688 310.125 161.609375 C 310.433594 165.496094 310.667969 169.40625 310.785156 173.292969 C 311.046875 180.523438 310.976562 187.6875 310.597656 194.824219 Z M 321.714844 160.570312 C 321.339844 160.242188 320.914062 159.9375 320.492188 159.628906 C 321.644531 160.101562 322.542969 160.832031 322.964844 161.773438 C 322.566406 161.347656 322.140625 160.949219 321.714844 160.570312 Z M 321.714844 160.570312 " fill-opacity="1" fill-rule="nonzero"/></g><g clip-path="url(#babb0db667)"><path fill="#ffffff" d="M 213.261719 197.925781 C 213.039062 197.894531 212.472656 197.941406 212.5 198.175781 C 212.523438 198.402344 212.582031 198.660156 212.515625 198.765625 C 212.449219 198.871094 212.183594 199.308594 212.183594 199.308594 C 212.183594 199.308594 211.929688 199.109375 211.667969 199.050781 C 211.402344 198.996094 210.679688 198.9375 210.550781 198.863281 C 210.417969 198.789062 209.257812 197.945312 209.023438 197.75 C 208.789062 197.554688 208.066406 197.0625 207.757812 196.738281 C 207.449219 196.417969 207.277344 196.503906 207.277344 196.085938 C 207.277344 195.667969 207.101562 195.46875 206.796875 195.175781 C 206.488281 194.878906 206.316406 194.570312 206.253906 194.015625 C 206.191406 193.460938 205.761719 191.574219 205.585938 191.207031 C 205.414062 190.839844 205.179688 189.816406 205.15625 189.40625 C 205.132812 189 205.304688 188.816406 205.265625 188.371094 C 205.230469 187.929688 205.191406 187.84375 205.449219 187.695312 C 205.710938 187.546875 206.019531 187.203125 206.019531 187.066406 C 206.019531 186.933594 205.167969 186.917969 205.019531 186.808594 C 204.871094 186.699219 204.796875 186.488281 204.660156 186.328125 C 204.527344 186.167969 204.441406 185.921875 204.441406 185.921875 L 204.589844 185.773438 C 204.589844 185.773438 205.191406 186.058594 205.585938 185.957031 C 205.980469 185.859375 206.140625 184.765625 206.253906 184.492188 C 206.363281 184.222656 206.769531 183.617188 206.804688 183.324219 C 206.84375 183.027344 206.867188 182.757812 206.867188 182.757812 C 206.867188 182.757812 208.074219 182.1875 208.457031 181.722656 C 208.839844 181.253906 209.074219 179.589844 208.914062 179.394531 C 208.753906 179.195312 207.089844 179.332031 206.945312 179.320312 C 206.796875 179.304688 205.710938 177.726562 204.988281 177.6875 C 204.257812 177.652344 203.078125 177.777344 202.363281 178.109375 C 201.648438 178.441406 201.042969 179.242188 200.933594 179.734375 C 200.820312 180.226562 201.066406 181.496094 200.980469 181.742188 C 200.894531 181.992188 199.539062 182.628906 199.402344 182.730469 C 199.269531 182.828125 199.367188 183.050781 199.367188 183.050781 C 199.367188 183.050781 197.605469 182.554688 197.0625 182.628906 C 196.523438 182.703125 195.734375 182.839844 195.425781 183.222656 C 195.117188 183.605469 194.042969 184.835938 193.785156 185.304688 C 193.527344 185.773438 193.230469 186.316406 193.035156 186.363281 C 192.835938 186.414062 191.371094 186.5625 191.222656 186.683594 C 191.074219 186.808594 190.261719 188.496094 189.867188 189.949219 C 189.472656 191.402344 189.179688 194.511719 189.300781 195.050781 C 189.425781 195.59375 189.546875 196.753906 189.496094 197.367188 C 189.449219 197.984375 190.039062 198.871094 190.089844 199.214844 C 190.140625 199.5625 190.71875 200.667969 190.632812 200.816406 C 190.542969 200.964844 190.125 201.261719 190.359375 201.582031 C 190.59375 201.902344 191.445312 202.257812 191.445312 202.257812 C 191.445312 202.257812 191.421875 204.03125 191.542969 204.597656 C 191.667969 205.167969 192.125 205.300781 192.125 205.300781 L 192.507812 205.019531 C 192.507812 205.019531 192 204.699219 192.050781 203.996094 C 192.097656 203.292969 192.113281 202.367188 192.113281 202.367188 L 192.605469 202.382812 C 192.605469 202.382812 192.988281 203.070312 193.640625 203.355469 L 193.949219 203.046875 C 193.949219 203.046875 193.480469 202.75 193.292969 202.34375 C 193.292969 202.34375 194.046875 202.566406 194.464844 202.550781 C 194.882812 202.539062 195.375 202.34375 195.375 202.34375 C 195.375 202.34375 195.511719 203.796875 195.585938 203.957031 C 195.660156 204.117188 195.917969 204.117188 195.917969 204.191406 C 195.917969 204.265625 196.335938 206.386719 196.839844 207.113281 C 197.347656 207.839844 197.800781 208.0625 197.800781 208.0625 C 197.800781 208.0625 197.75 208.605469 197.742188 209.1875 L 182.941406 222.015625 C 182.710938 221.792969 182.503906 221.65625 182.449219 221.707031 C 182.398438 221.753906 182.511719 221.972656 182.710938 222.214844 L 180.355469 224.257812 C 180.355469 224.257812 180.324219 224.394531 180.382812 224.464844 C 180.445312 224.539062 180.53125 224.519531 180.53125 224.519531 L 182.941406 222.472656 C 183.171875 222.699219 183.378906 222.832031 183.433594 222.78125 C 183.488281 222.734375 183.375 222.519531 183.175781 222.273438 L 197.761719 209.890625 C 197.78125 210.128906 197.820312 210.335938 197.882812 210.460938 C 198.140625 210.980469 198.289062 211.753906 198.253906 212.050781 C 198.214844 212.347656 198.140625 212.660156 198.140625 212.828125 C 198.140625 212.996094 198.195312 213.347656 197.902344 213.566406 C 197.605469 213.789062 197.21875 214.472656 196.734375 214.734375 C 196.253906 214.992188 194.371094 215.914062 193.242188 216.601562 C 192.113281 217.285156 190.359375 218.671875 189.953125 219.132812 C 189.546875 219.59375 188.917969 220.113281 188.804688 220.113281 C 188.691406 220.113281 187.832031 220.0625 187.417969 220.167969 C 187.007812 220.269531 186.601562 220.460938 186.570312 220.460938 C 186.539062 220.460938 186.164062 220.390625 185.855469 220.519531 C 185.546875 220.648438 186.039062 223 186.179688 223.253906 C 186.320312 223.503906 186.617188 223.695312 186.636719 224.046875 C 186.65625 224.398438 186.890625 226.140625 187.179688 226.882812 C 187.46875 227.621094 188.433594 228.824219 188.726562 228.933594 C 189.015625 229.042969 189.351562 228.710938 189.351562 228.710938 C 189.351562 228.710938 189.605469 228.535156 189.542969 228.152344 C 189.480469 227.769531 189.285156 226.871094 189.371094 226.511719 C 189.457031 226.15625 189.949219 225.6875 189.984375 225.179688 C 190.023438 224.675781 190.097656 223.988281 190.195312 223.898438 C 190.292969 223.8125 191.253906 223.40625 191.328125 223.210938 C 191.402344 223.011719 191.957031 223.101562 192.019531 222.804688 C 192.078125 222.507812 192.84375 221.929688 193.300781 221.558594 C 193.757812 221.191406 195.46875 219.847656 196.121094 219.441406 C 196.773438 219.035156 197.527344 218.898438 197.761719 218.800781 C 197.996094 218.699219 198.230469 218.292969 198.402344 218.207031 C 198.574219 218.121094 199.324219 217.8125 199.683594 217.667969 C 200.039062 217.519531 200.667969 217.320312 200.917969 217.148438 C 201.164062 216.976562 201.496094 216.445312 201.496094 216.445312 C 201.496094 216.445312 201.617188 218.847656 201.53125 219.316406 C 201.445312 219.785156 201.371094 221.917969 201.371094 222.792969 C 201.371094 223.667969 201.398438 225.402344 201.46875 225.539062 C 201.542969 225.675781 201.976562 225.773438 201.914062 225.921875 C 201.851562 226.070312 201.507812 226.40625 201.558594 226.679688 C 201.605469 226.949219 201.914062 227.578125 201.894531 228.027344 C 201.875 228.480469 201.808594 228.894531 202.042969 228.957031 C 202.277344 229.019531 203.070312 229.105469 203.984375 229.09375 C 204.898438 229.082031 204.855469 228.792969 205.03125 228.738281 C 205.210938 228.683594 205.992188 228.695312 206.449219 228.84375 C 206.90625 228.992188 207.890625 229.101562 208.675781 229.046875 C 209.457031 228.992188 210.273438 228.855469 210.472656 228.71875 C 210.671875 228.585938 210.363281 228.1875 210.363281 228.1875 C 210.363281 228.1875 210.140625 227.542969 209.566406 227.457031 C 208.996094 227.367188 208.402344 227.292969 208.007812 227.078125 C 207.617188 226.863281 207.332031 226.457031 207.015625 226.265625 C 206.855469 226.164062 206.605469 225.988281 206.390625 225.804688 L 206.832031 224.042969 C 207.148438 224.09375 207.398438 224.082031 207.410156 224.011719 C 207.425781 223.9375 207.210938 223.832031 206.902344 223.75 L 212.230469 202.417969 C 212.476562 202.453125 212.761719 202.402344 212.808594 202.355469 C 212.878906 202.285156 212.929688 202.117188 212.929688 202.117188 C 212.929688 202.117188 213.261719 202.027344 213.367188 201.921875 C 213.476562 201.8125 213.410156 201.609375 213.410156 201.609375 C 213.410156 201.609375 213.664062 201.503906 213.679688 201.296875 C 213.695312 201.09375 213.5625 200.9375 213.5625 200.9375 C 213.5625 200.9375 213.828125 200.707031 213.8125 200.484375 C 213.796875 200.261719 213.457031 199.875 213.328125 199.785156 C 213.195312 199.695312 213.3125 199.144531 213.425781 199.03125 C 213.539062 198.914062 214.066406 198.765625 214.082031 198.5625 C 214.097656 198.359375 213.484375 197.960938 213.261719 197.929688 Z M 206.570312 223.675781 C 206.253906 223.625 206.003906 223.636719 205.988281 223.710938 C 205.972656 223.78125 206.191406 223.890625 206.496094 223.972656 L 206.125 225.542969 C 206.054688 225.464844 206.003906 225.394531 205.984375 225.332031 C 205.894531 225.066406 205.945312 224.929688 205.796875 224.8125 C 205.648438 224.699219 205.449219 224.566406 205.449219 224.566406 C 205.449219 224.566406 205.746094 223.792969 205.714844 223.554688 C 205.679688 223.316406 205.394531 222.265625 205.367188 221.976562 C 205.34375 221.6875 205.867188 219.957031 205.71875 219.3125 C 205.570312 218.664062 205.441406 218 205.5 217.609375 C 205.554688 217.222656 206.441406 216.1875 206.441406 215.265625 C 206.441406 214.339844 205.90625 212.878906 205.8125 212.308594 C 205.71875 211.734375 205.664062 210.234375 205.5 209.554688 C 205.332031 208.871094 204.960938 208.351562 204.816406 207.613281 C 204.667969 206.871094 204.316406 206.484375 204.351562 206.167969 C 204.390625 205.855469 204.484375 205.484375 204.59375 205.207031 C 204.703125 204.933594 204.664062 204.421875 204.664062 204.421875 C 204.664062 204.421875 204.917969 204.386719 205.035156 204.347656 C 205.148438 204.304688 205.207031 204.117188 205.207031 204.117188 C 205.207031 204.117188 205.535156 204.28125 205.675781 204.234375 C 205.816406 204.183594 205.929688 203.886719 205.929688 203.886719 C 205.929688 203.886719 206.300781 203.894531 206.4375 203.757812 C 206.578125 203.617188 206.59375 203.3125 206.59375 203.3125 C 206.59375 203.3125 207.070312 203.183594 207.144531 203.042969 C 207.21875 202.902344 206.976562 202.347656 207.046875 202.277344 C 207.113281 202.210938 207.671875 202.171875 207.964844 202.128906 C 208.261719 202.089844 207.6875 201.359375 207.40625 201.128906 C 207.128906 200.898438 206.929688 200.816406 206.8125 200.898438 C 206.699219 200.980469 206.667969 201.136719 206.558594 201.195312 C 206.453125 201.253906 206.3125 201.300781 206.3125 201.300781 C 206.3125 201.300781 206.035156 200.914062 205.71875 200.773438 C 205.410156 200.636719 204.765625 200.699219 204.765625 200.699219 C 204.765625 200.699219 204.421875 200.316406 204.363281 200.160156 C 204.304688 200.003906 204.554688 198.835938 204.554688 198.835938 C 204.554688 198.835938 206.082031 199.863281 206.691406 200.421875 C 207.296875 200.980469 208.628906 201.359375 209.015625 201.449219 C 209.402344 201.539062 209.992188 201.628906 210.148438 201.597656 C 210.304688 201.5625 210.371094 201.40625 210.371094 201.40625 C 210.371094 201.40625 210.609375 201.414062 210.765625 201.546875 C 210.882812 201.648438 211.390625 201.914062 211.710938 202.125 Z M 206.570312 223.675781 " fill-opacity="1" fill-rule="nonzero"/></g><path stroke-linecap="butt" transform="matrix(0.000000001309, 0.75, -0.75, 0.000000001309, 188.096519, 226.796412)" fill="none" stroke-linejoin="miter" d="M 0.000617985 3.498484 L 12.886035 3.498484 " stroke="#012c18" stroke-width="7" stroke-opacity="1" stroke-miterlimit="4"/><path stroke-linecap="butt" transform="matrix(0.000000001309, 0.75, -0.75, 0.000000001309, 180.324266, 226.796412)" fill="none" stroke-linejoin="miter" d="M 0.000617985 3.000064 L 12.886035 3.000064 " stroke="#012c18" stroke-width="6" stroke-opacity="1" stroke-miterlimit="4"/><path stroke-linecap="butt" transform="matrix(0.000000001309, 0.75, -0.75, 0.000000001309, 173.309919, 226.796412)" fill="none" stroke-linejoin="miter" d="M 0.000617986 2.501767 L 12.886035 2.501767 " stroke="#012c18" stroke-width="5" stroke-opacity="1" stroke-miterlimit="4"/><path stroke-linecap="butt" transform="matrix(0.000000001309, 0.75, -0.75, 0.000000001309, 167.05347, 226.796412)" fill="none" stroke-linejoin="miter" d="M 0.000617987 1.998376 L 12.886035 1.998376 " stroke="#012c18" stroke-width="4" stroke-opacity="1" stroke-miterlimit="4"/><path stroke-linecap="butt" transform="matrix(0.000000001309, 0.75, -0.75, 0.000000001309, 161.554959, 226.796412)" fill="none" stroke-linejoin="miter" d="M 0.000617988 1.500363 L 12.886036 1.500363 " stroke="#012c18" stroke-width="3" stroke-opacity="1" stroke-miterlimit="4"/><path stroke-linecap="butt" transform="matrix(0.000000001309, 0.75, -0.75, 0.000000001309, 156.814374, 226.796412)" fill="none" stroke-linejoin="miter" d="M 0.000617989 1.002499 L 12.886036 1.002499 " stroke="#012c18" stroke-width="2" stroke-opacity="1" stroke-miterlimit="4"/><g clip-path="url(#3b2352ced7)"><g clip-path="url(#c1caee0457)"><path fill="#ffffff" d="M 247.953125 139.765625 L 266.941406 139.765625 L 266.941406 158.753906 L 247.953125 158.753906 Z M 247.953125 139.765625 " fill-opacity="1" fill-rule="nonzero"/></g></g><g clip-path="url(#4663afee0a)"><path fill="#0e5d38" d="M 257.433594 144.5625 C 253.648438 144.5625 250.578125 147.746094 250.578125 151.671875 C 250.578125 155.597656 253.066406 155.882812 257.433594 163.429688 C 261.785156 155.882812 264.289062 155.601562 264.289062 151.671875 C 264.289062 147.746094 261.21875 144.5625 257.433594 144.5625 Z M 257.433594 154.359375 C 257.085938 154.351562 256.75 154.28125 256.429688 154.140625 C 256.109375 154 255.824219 153.804688 255.582031 153.550781 C 255.339844 153.300781 255.15625 153.011719 255.027344 152.6875 C 254.898438 152.359375 254.835938 152.023438 254.84375 151.671875 C 254.835938 151.324219 254.898438 150.984375 255.027344 150.660156 C 255.15625 150.335938 255.339844 150.046875 255.582031 149.792969 C 255.828125 149.542969 256.109375 149.347656 256.429688 149.207031 C 256.75 149.066406 257.085938 148.996094 257.433594 148.988281 C 257.785156 148.996094 258.117188 149.066406 258.4375 149.207031 C 258.761719 149.347656 259.042969 149.542969 259.285156 149.792969 C 259.527344 150.046875 259.710938 150.335938 259.839844 150.660156 C 259.96875 150.984375 260.03125 151.324219 260.023438 151.671875 C 260.03125 152.023438 259.96875 152.359375 259.839844 152.6875 C 259.714844 153.011719 259.527344 153.300781 259.285156 153.550781 C 259.042969 153.804688 258.761719 154 258.441406 154.140625 C 258.117188 154.28125 257.785156 154.351562 257.433594 154.359375 Z M 257.433594 154.359375 " fill-opacity="1" fill-rule="nonzero"/></g><g fill="#012c18" fill-opacity="1"><g transform="translate(199.82756, 234.624534)"><g><path d="M 2.828125 -9.796875 C 3.597656 -9.796875 4.171875 -9.585938 4.546875 -9.171875 C 4.929688 -8.765625 5.125 -8.164062 5.125 -7.375 L 5.125 -6.109375 C 5.125 -5.304688 4.929688 -4.703125 4.546875 -4.296875 C 4.171875 -3.890625 3.597656 -3.6875 2.828125 -3.6875 L 2.09375 -3.6875 L 2.09375 0 L 0.5625 0 L 0.5625 -9.796875 Z M 2.09375 -8.40625 L 2.09375 -5.078125 L 2.828125 -5.078125 C 3.066406 -5.078125 3.25 -5.140625 3.375 -5.265625 C 3.507812 -5.398438 3.578125 -5.644531 3.578125 -6 L 3.578125 -7.46875 C 3.578125 -7.832031 3.507812 -8.078125 3.375 -8.203125 C 3.25 -8.335938 3.066406 -8.40625 2.828125 -8.40625 Z M 2.09375 -8.40625 "/></g></g></g><g fill="#012c18" fill-opacity="1"><g transform="translate(206.502613, 234.624534)"><g><path d="M 5.546875 0 L 3.984375 0 L 3.71875 -1.78125 L 1.828125 -1.78125 L 1.5625 0 L 0.15625 0 L 1.71875 -9.796875 L 3.96875 -9.796875 Z M 2.03125 -3.109375 L 3.515625 -3.109375 L 2.765625 -8.0625 Z M 2.03125 -3.109375 "/></g></g></g><g fill="#012c18" fill-opacity="1"><g transform="translate(213.597435, 234.624534)"><g><path d="M 3.78125 0 C 3.757812 -0.0625 3.738281 -0.117188 3.71875 -0.171875 C 3.707031 -0.234375 3.691406 -0.304688 3.671875 -0.390625 C 3.660156 -0.472656 3.648438 -0.578125 3.640625 -0.703125 C 3.640625 -0.835938 3.640625 -1.003906 3.640625 -1.203125 L 3.640625 -2.75 C 3.640625 -3.207031 3.554688 -3.523438 3.390625 -3.703125 C 3.234375 -3.890625 2.976562 -3.984375 2.625 -3.984375 L 2.09375 -3.984375 L 2.09375 0 L 0.5625 0 L 0.5625 -9.796875 L 2.890625 -9.796875 C 3.691406 -9.796875 4.269531 -9.609375 4.625 -9.234375 C 4.988281 -8.867188 5.171875 -8.304688 5.171875 -7.546875 L 5.171875 -6.78125 C 5.171875 -5.769531 4.832031 -5.101562 4.15625 -4.78125 C 4.550781 -4.625 4.820312 -4.363281 4.96875 -4 C 5.113281 -3.644531 5.1875 -3.210938 5.1875 -2.703125 L 5.1875 -1.1875 C 5.1875 -0.945312 5.191406 -0.734375 5.203125 -0.546875 C 5.222656 -0.367188 5.269531 -0.1875 5.34375 0 Z M 2.09375 -8.40625 L 2.09375 -5.390625 L 2.703125 -5.390625 C 2.992188 -5.390625 3.21875 -5.460938 3.375 -5.609375 C 3.539062 -5.765625 3.625 -6.035156 3.625 -6.421875 L 3.625 -7.390625 C 3.625 -7.742188 3.5625 -8 3.4375 -8.15625 C 3.3125 -8.320312 3.113281 -8.40625 2.84375 -8.40625 Z M 2.09375 -8.40625 "/></g></g></g><g fill="#012c18" fill-opacity="1"><g transform="translate(220.6223, 234.624534)"><g><path d="M 5.546875 0 L 3.984375 0 L 3.71875 -1.78125 L 1.828125 -1.78125 L 1.5625 0 L 0.15625 0 L 1.71875 -9.796875 L 3.96875 -9.796875 Z M 2.03125 -3.109375 L 3.515625 -3.109375 L 2.765625 -8.0625 Z M 2.03125 -3.109375 "/></g></g></g><g fill="#012c18" fill-opacity="1"><g transform="translate(227.717121, 234.624534)"><g/></g></g><g fill="#012c18" fill-opacity="1"><g transform="translate(231.285915, 234.624534)"><g><path d="M 0.359375 -7.453125 C 0.359375 -8.242188 0.546875 -8.847656 0.921875 -9.265625 C 1.304688 -9.691406 1.875 -9.90625 2.625 -9.90625 C 3.382812 -9.90625 3.953125 -9.691406 4.328125 -9.265625 C 4.710938 -8.847656 4.90625 -8.242188 4.90625 -7.453125 L 4.90625 -7.0625 L 3.4375 -7.0625 L 3.4375 -7.546875 C 3.4375 -7.898438 3.367188 -8.148438 3.234375 -8.296875 C 3.097656 -8.441406 2.910156 -8.515625 2.671875 -8.515625 C 2.429688 -8.515625 2.242188 -8.441406 2.109375 -8.296875 C 1.972656 -8.148438 1.90625 -7.898438 1.90625 -7.546875 C 1.90625 -7.210938 1.976562 -6.914062 2.125 -6.65625 C 2.28125 -6.394531 2.46875 -6.148438 2.6875 -5.921875 C 2.914062 -5.703125 3.15625 -5.476562 3.40625 -5.25 C 3.664062 -5.019531 3.90625 -4.769531 4.125 -4.5 C 4.351562 -4.226562 4.539062 -3.914062 4.6875 -3.5625 C 4.832031 -3.21875 4.90625 -2.816406 4.90625 -2.359375 C 4.90625 -1.554688 4.710938 -0.941406 4.328125 -0.515625 C 3.941406 -0.0976562 3.375 0.109375 2.625 0.109375 C 1.863281 0.109375 1.289062 -0.0976562 0.90625 -0.515625 C 0.519531 -0.941406 0.328125 -1.554688 0.328125 -2.359375 L 0.328125 -3.03125 L 1.78125 -3.03125 L 1.78125 -2.25 C 1.78125 -1.894531 1.851562 -1.644531 2 -1.5 C 2.144531 -1.363281 2.335938 -1.296875 2.578125 -1.296875 C 2.816406 -1.296875 3.007812 -1.363281 3.15625 -1.5 C 3.300781 -1.644531 3.375 -1.894531 3.375 -2.25 C 3.375 -2.59375 3.296875 -2.890625 3.140625 -3.140625 C 2.992188 -3.398438 2.804688 -3.644531 2.578125 -3.875 C 2.359375 -4.101562 2.117188 -4.332031 1.859375 -4.5625 C 1.609375 -4.789062 1.367188 -5.039062 1.140625 -5.3125 C 0.921875 -5.582031 0.734375 -5.890625 0.578125 -6.234375 C 0.429688 -6.578125 0.359375 -6.984375 0.359375 -7.453125 Z M 0.359375 -7.453125 "/></g></g></g><g fill="#012c18" fill-opacity="1"><g transform="translate(237.918991, 234.624534)"><g><path d="M 2.03125 -9.796875 L 2.03125 -2.234375 C 2.03125 -1.878906 2.101562 -1.628906 2.25 -1.484375 C 2.394531 -1.347656 2.585938 -1.28125 2.828125 -1.28125 C 3.066406 -1.28125 3.257812 -1.347656 3.40625 -1.484375 C 3.550781 -1.628906 3.625 -1.878906 3.625 -2.234375 L 3.625 -9.796875 L 5.078125 -9.796875 L 5.078125 -2.34375 C 5.078125 -1.539062 4.882812 -0.925781 4.5 -0.5 C 4.113281 -0.0820312 3.539062 0.125 2.78125 0.125 C 2.03125 0.125 1.457031 -0.0820312 1.0625 -0.5 C 0.675781 -0.925781 0.484375 -1.539062 0.484375 -2.34375 L 0.484375 -9.796875 Z M 2.03125 -9.796875 "/></g></g></g><g fill="#012c18" fill-opacity="1"><g transform="translate(244.887881, 234.624534)"><g><path d="M 5.546875 0 L 3.984375 0 L 3.71875 -1.78125 L 1.828125 -1.78125 L 1.5625 0 L 0.15625 0 L 1.71875 -9.796875 L 3.96875 -9.796875 Z M 2.03125 -3.109375 L 3.515625 -3.109375 L 2.765625 -8.0625 Z M 2.03125 -3.109375 "/></g></g></g><g fill="#012c18" fill-opacity="1"><g transform="translate(251.982706, 234.624534)"><g/></g></g><g fill="#012c18" fill-opacity="1"><g transform="translate(255.5515, 234.624534)"><g><path d="M 3.828125 -2.84375 L 4.875 -9.796875 L 7.015625 -9.796875 L 7.015625 0 L 5.5625 0 L 5.5625 -7.03125 L 4.5 0 L 3.03125 0 L 1.890625 -6.9375 L 1.890625 0 L 0.546875 0 L 0.546875 -9.796875 L 2.6875 -9.796875 Z M 3.828125 -2.84375 "/></g></g></g><g fill="#012c18" fill-opacity="1"><g transform="translate(264.521275, 234.624534)"><g><path d="M 2.09375 -5.671875 L 4.21875 -5.671875 L 4.21875 -4.265625 L 2.09375 -4.265625 L 2.09375 -1.40625 L 4.765625 -1.40625 L 4.765625 0 L 0.5625 0 L 0.5625 -9.796875 L 4.765625 -9.796875 L 4.765625 -8.40625 L 2.09375 -8.40625 Z M 2.09375 -5.671875 "/></g></g></g><g fill="#012c18" fill-opacity="1"><g transform="translate(271.070408, 234.624534)"><g><path d="M 0.5625 -9.796875 L 2.09375 -9.796875 L 2.09375 -1.40625 L 4.640625 -1.40625 L 4.640625 0 L 0.5625 0 Z M 0.5625 -9.796875 "/></g></g></g><g fill="#012c18" fill-opacity="1"><g transform="translate(277.241749, 234.624534)"><g><path d="M 2.09375 0 L 0.5625 0 L 0.5625 -9.796875 L 2.09375 -9.796875 L 2.09375 -5.59375 L 3.84375 -5.59375 L 3.84375 -9.796875 L 5.421875 -9.796875 L 5.421875 0 L 3.84375 0 L 3.84375 -4.203125 L 2.09375 -4.203125 Z M 2.09375 0 "/></g></g></g><g fill="#012c18" fill-opacity="1"><g transform="translate(284.616412, 234.624534)"><g><path d="M 1.96875 -2.25 C 1.96875 -1.894531 2.039062 -1.644531 2.1875 -1.5 C 2.332031 -1.351562 2.523438 -1.28125 2.765625 -1.28125 C 3.015625 -1.28125 3.207031 -1.351562 3.34375 -1.5 C 3.488281 -1.644531 3.5625 -1.894531 3.5625 -2.25 L 3.5625 -7.546875 C 3.5625 -7.898438 3.488281 -8.148438 3.34375 -8.296875 C 3.207031 -8.441406 3.015625 -8.515625 2.765625 -8.515625 C 2.523438 -8.515625 2.332031 -8.441406 2.1875 -8.296875 C 2.039062 -8.148438 1.96875 -7.898438 1.96875 -7.546875 Z M 0.4375 -7.453125 C 0.4375 -8.242188 0.632812 -8.847656 1.03125 -9.265625 C 1.4375 -9.691406 2.015625 -9.90625 2.765625 -9.90625 C 3.523438 -9.90625 4.101562 -9.691406 4.5 -9.265625 C 4.90625 -8.847656 5.109375 -8.242188 5.109375 -7.453125 L 5.109375 -2.359375 C 5.109375 -1.554688 4.90625 -0.941406 4.5 -0.515625 C 4.101562 -0.0976562 3.523438 0.109375 2.765625 0.109375 C 2.015625 0.109375 1.4375 -0.0976562 1.03125 -0.515625 C 0.632812 -0.941406 0.4375 -1.554688 0.4375 -2.359375 Z M 0.4375 -7.453125 "/></g></g></g><g fill="#012c18" fill-opacity="1"><g transform="translate(291.557322, 234.624534)"><g><path d="M 3.78125 0 C 3.757812 -0.0625 3.738281 -0.117188 3.71875 -0.171875 C 3.707031 -0.234375 3.691406 -0.304688 3.671875 -0.390625 C 3.660156 -0.472656 3.648438 -0.578125 3.640625 -0.703125 C 3.640625 -0.835938 3.640625 -1.003906 3.640625 -1.203125 L 3.640625 -2.75 C 3.640625 -3.207031 3.554688 -3.523438 3.390625 -3.703125 C 3.234375 -3.890625 2.976562 -3.984375 2.625 -3.984375 L 2.09375 -3.984375 L 2.09375 0 L 0.5625 0 L 0.5625 -9.796875 L 2.890625 -9.796875 C 3.691406 -9.796875 4.269531 -9.609375 4.625 -9.234375 C 4.988281 -8.867188 5.171875 -8.304688 5.171875 -7.546875 L 5.171875 -6.78125 C 5.171875 -5.769531 4.832031 -5.101562 4.15625 -4.78125 C 4.550781 -4.625 4.820312 -4.363281 4.96875 -4 C 5.113281 -3.644531 5.1875 -3.210938 5.1875 -2.703125 L 5.1875 -1.1875 C 5.1875 -0.945312 5.191406 -0.734375 5.203125 -0.546875 C 5.222656 -0.367188 5.269531 -0.1875 5.34375 0 Z M 2.09375 -8.40625 L 2.09375 -5.390625 L 2.703125 -5.390625 C 2.992188 -5.390625 3.21875 -5.460938 3.375 -5.609375 C 3.539062 -5.765625 3.625 -6.035156 3.625 -6.421875 L 3.625 -7.390625 C 3.625 -7.742188 3.5625 -8 3.4375 -8.15625 C 3.3125 -8.320312 3.113281 -8.40625 2.84375 -8.40625 Z M 2.09375 -8.40625 "/></g></g></g><g fill="#012c18" fill-opacity="1"><g transform="translate(298.582192, 234.624534)"><g/></g></g><g fill="#012c18" fill-opacity="1"><g transform="translate(302.150986, 234.624534)"><g><path d="M 2.890625 -1.8125 L 4.0625 -9.796875 L 5.46875 -9.796875 L 3.96875 0 L 1.671875 0 L 0.15625 -9.796875 L 1.703125 -9.796875 Z M 2.890625 -1.8125 "/></g></g></g><g fill="#012c18" fill-opacity="1"><g transform="translate(309.17585, 234.624534)"><g><path d="M 0.5625 -9.796875 L 2.09375 -9.796875 L 2.09375 0 L 0.5625 0 Z M 0.5625 -9.796875 "/></g></g></g><g fill="#012c18" fill-opacity="1"><g transform="translate(313.234371, 234.624534)"><g><path d="M 5.546875 0 L 3.984375 0 L 3.71875 -1.78125 L 1.828125 -1.78125 L 1.5625 0 L 0.15625 0 L 1.71875 -9.796875 L 3.96875 -9.796875 Z M 2.03125 -3.109375 L 3.515625 -3.109375 L 2.765625 -8.0625 Z M 2.03125 -3.109375 "/></g></g></g><g fill="#012c18" fill-opacity="1"><g transform="translate(320.329192, 234.624534)"><g><path d="M 2.875 -5.453125 L 5.03125 -5.453125 L 5.03125 -2.359375 C 5.03125 -1.554688 4.832031 -0.941406 4.4375 -0.515625 C 4.050781 -0.0976562 3.484375 0.109375 2.734375 0.109375 C 1.972656 0.109375 1.398438 -0.0976562 1.015625 -0.515625 C 0.628906 -0.941406 0.4375 -1.554688 0.4375 -2.359375 L 0.4375 -7.453125 C 0.4375 -8.242188 0.628906 -8.847656 1.015625 -9.265625 C 1.398438 -9.691406 1.972656 -9.90625 2.734375 -9.90625 C 3.484375 -9.90625 4.050781 -9.691406 4.4375 -9.265625 C 4.832031 -8.847656 5.03125 -8.242188 5.03125 -7.453125 L 5.03125 -6.5 L 3.5625 -6.5 L 3.5625 -7.546875 C 3.5625 -7.898438 3.488281 -8.148438 3.34375 -8.296875 C 3.207031 -8.441406 3.015625 -8.515625 2.765625 -8.515625 C 2.523438 -8.515625 2.332031 -8.441406 2.1875 -8.296875 C 2.039062 -8.148438 1.96875 -7.898438 1.96875 -7.546875 L 1.96875 -2.25 C 1.96875 -1.894531 2.039062 -1.644531 2.1875 -1.5 C 2.332031 -1.363281 2.523438 -1.296875 2.765625 -1.296875 C 3.015625 -1.296875 3.207031 -1.363281 3.34375 -1.5 C 3.488281 -1.644531 3.5625 -1.894531 3.5625 -2.25 L 3.5625 -4.0625 L 2.875 -4.0625 Z M 2.875 -5.453125 "/></g></g></g><g fill="#012c18" fill-opacity="1"><g transform="translate(327.186148, 234.624534)"><g><path d="M 2.09375 -5.671875 L 4.21875 -5.671875 L 4.21875 -4.265625 L 2.09375 -4.265625 L 2.09375 -1.40625 L 4.765625 -1.40625 L 4.765625 0 L 0.5625 0 L 0.5625 -9.796875 L 4.765625 -9.796875 L 4.765625 -8.40625 L 2.09375 -8.40625 Z M 2.09375 -5.671875 "/></g></g></g><g fill="#012c18" fill-opacity="1"><g transform="translate(333.735281, 234.624534)"><g><path d="M 3.828125 -2.84375 L 4.875 -9.796875 L 7.015625 -9.796875 L 7.015625 0 L 5.5625 0 L 5.5625 -7.03125 L 4.5 0 L 3.03125 0 L 1.890625 -6.9375 L 1.890625 0 L 0.546875 0 L 0.546875 -9.796875 L 2.6875 -9.796875 Z M 3.828125 -2.84375 "/></g></g></g><g clip-path="url(#136c10e607)"><path fill="#0e5d38" d="M 116.59375 188.460938 C 116.59375 188.460938 116.597656 188.464844 116.601562 188.46875 C 116.628906 188.503906 116.652344 188.535156 116.691406 188.574219 C 116.816406 188.742188 116.863281 188.914062 116.90625 189.078125 C 116.992188 189.398438 116.964844 189.707031 116.871094 190 C 116.855469 190.050781 116.832031 190.101562 116.8125 190.148438 C 116.8125 190.152344 116.8125 190.15625 116.808594 190.15625 C 116.816406 190.15625 116.820312 190.152344 116.824219 190.148438 C 116.945312 190.101562 117.066406 190.050781 117.1875 190 C 117.558594 189.847656 117.925781 189.6875 118.292969 189.527344 C 119.242188 189.109375 120.179688 188.667969 121.101562 188.199219 C 122.0625 187.703125 123.011719 187.1875 123.9375 186.613281 C 124.863281 186.039062 125.769531 185.425781 126.625 184.730469 C 127.054688 184.378906 127.472656 184.011719 127.867188 183.609375 C 128.265625 183.207031 128.640625 182.773438 128.96875 182.285156 C 129.132812 182.039062 129.285156 181.777344 129.414062 181.5 C 129.542969 181.222656 129.652344 180.925781 129.722656 180.605469 C 129.789062 180.289062 129.816406 179.953125 129.78125 179.613281 C 129.769531 179.53125 129.757812 179.445312 129.742188 179.363281 L 129.730469 179.300781 L 129.714844 179.230469 L 129.683594 179.117188 C 129.632812 178.953125 129.574219 178.796875 129.5 178.644531 C 129.355469 178.34375 129.160156 178.078125 128.949219 177.847656 C 128.734375 177.617188 128.5 177.421875 128.257812 177.25 C 127.769531 176.910156 127.253906 176.660156 126.730469 176.457031 C 125.6875 176.054688 124.617188 175.820312 123.546875 175.65625 C 122.480469 175.492188 121.40625 175.410156 120.339844 175.363281 C 119.269531 175.324219 118.199219 175.324219 117.132812 175.371094 L 117.132812 175.523438 C 118.191406 175.617188 119.246094 175.722656 120.292969 175.871094 C 121.339844 176.011719 122.378906 176.195312 123.398438 176.433594 C 123.90625 176.554688 124.410156 176.691406 124.902344 176.847656 C 125.390625 177.007812 125.875 177.1875 126.328125 177.402344 C 126.78125 177.617188 127.214844 177.863281 127.582031 178.15625 C 127.945312 178.449219 128.242188 178.789062 128.394531 179.15625 C 128.429688 179.246094 128.460938 179.34375 128.480469 179.433594 L 128.496094 179.511719 L 128.507812 179.578125 C 128.511719 179.625 128.515625 179.671875 128.519531 179.71875 C 128.53125 179.914062 128.507812 180.109375 128.453125 180.308594 C 128.347656 180.710938 128.121094 181.113281 127.839844 181.496094 C 127.558594 181.875 127.222656 182.238281 126.859375 182.578125 C 126.496094 182.917969 126.105469 183.242188 125.699219 183.546875 C 124.882812 184.164062 124.011719 184.722656 123.117188 185.246094 C 122.21875 185.769531 121.300781 186.261719 120.363281 186.726562 C 119.890625 186.957031 119.421875 187.1875 118.945312 187.410156 C 118.679688 187.535156 118.40625 187.65625 118.136719 187.78125 C 117.929688 187.875 117.722656 187.964844 117.511719 188.058594 C 117.230469 188.183594 116.949219 188.308594 116.664062 188.429688 C 116.664062 188.429688 116.660156 188.433594 116.65625 188.433594 C 116.636719 188.441406 116.613281 188.453125 116.59375 188.460938 " fill-opacity="1" fill-rule="nonzero"/></g><g clip-path="url(#43133ff7e0)"><path fill="#0e5d38" d="M 59.414062 194.160156 C 59.445312 194.496094 59.539062 194.828125 59.679688 195.128906 C 59.824219 195.429688 60.015625 195.699219 60.222656 195.933594 C 60.648438 196.40625 61.144531 196.75 61.652344 197.03125 C 62.160156 197.3125 62.683594 197.53125 63.210938 197.714844 C 63.742188 197.902344 64.273438 198.046875 64.808594 198.171875 C 65.878906 198.425781 66.957031 198.589844 68.035156 198.699219 C 68.574219 198.753906 69.113281 198.796875 69.648438 198.824219 C 70.1875 198.855469 70.726562 198.871094 71.265625 198.875 C 72.105469 198.886719 72.945312 198.871094 73.78125 198.839844 C 74.320312 198.816406 74.863281 198.789062 75.402344 198.753906 C 76.164062 198.703125 76.925781 198.640625 77.683594 198.570312 C 78.953125 198.449219 80.222656 198.308594 81.484375 198.152344 C 81.996094 198.089844 82.507812 198.027344 83.019531 197.960938 C 83.359375 197.917969 83.699219 197.875 84.039062 197.828125 C 86.152344 197.554688 88.261719 197.253906 90.363281 196.925781 C 91.769531 196.703125 93.1875 196.476562 94.589844 196.238281 C 95 196.167969 95.382812 196.09375 95.835938 196.023438 L 95.835938 196.019531 L 95.855469 195.800781 L 95.425781 195.316406 L 95.421875 195.316406 C 95.140625 195.359375 94.847656 195.445312 94.597656 195.507812 L 94.597656 195.503906 C 93.179688 195.839844 91.726562 196.148438 90.285156 196.410156 C 88.199219 196.796875 86.09375 197.113281 83.984375 197.335938 C 83.910156 197.34375 83.839844 197.351562 83.765625 197.359375 C 83.691406 197.367188 83.617188 197.375 83.539062 197.382812 C 83.464844 197.390625 83.390625 197.398438 83.3125 197.402344 C 83.28125 197.40625 83.246094 197.410156 83.210938 197.414062 C 83.164062 197.417969 83.125 197.421875 83.074219 197.425781 C 83.023438 197.429688 82.972656 197.433594 82.933594 197.441406 C 82.851562 197.445312 82.847656 197.449219 82.8125 197.449219 C 82.722656 197.457031 82.625 197.46875 82.535156 197.476562 C 82.535156 197.472656 82.527344 197.476562 82.527344 197.476562 C 82.398438 197.484375 82.269531 197.496094 82.136719 197.507812 C 82.011719 197.515625 81.878906 197.515625 81.75 197.527344 C 81.621094 197.535156 81.492188 197.542969 81.363281 197.542969 L 81.359375 197.542969 C 80.121094 197.667969 78.878906 197.683594 77.636719 197.703125 C 76.765625 197.71875 75.890625 197.707031 75.019531 197.707031 L 75.015625 197.707031 C 74.472656 197.707031 73.925781 197.707031 73.378906 197.667969 L 73.375 197.667969 C 72.683594 197.667969 71.996094 197.621094 71.3125 197.582031 C 71.046875 197.566406 70.785156 197.554688 70.527344 197.535156 C 70.265625 197.515625 70.003906 197.5 69.742188 197.476562 C 69.21875 197.429688 68.699219 197.386719 68.183594 197.324219 C 67.148438 197.207031 66.117188 197.054688 65.117188 196.835938 C 64.617188 196.722656 64.125 196.589844 63.644531 196.4375 C 63.167969 196.28125 62.703125 196.097656 62.273438 195.875 C 61.847656 195.652344 61.453125 195.390625 61.152344 195.082031 C 60.855469 194.765625 60.664062 194.417969 60.609375 194.027344 C 60.554688 193.640625 60.644531 193.214844 60.828125 192.792969 C 61.011719 192.371094 61.289062 191.960938 61.601562 191.574219 C 61.914062 191.183594 62.269531 190.816406 62.644531 190.464844 C 63.019531 190.113281 63.414062 189.777344 63.824219 189.453125 C 64.644531 188.804688 65.511719 188.207031 66.398438 187.632812 C 67.285156 187.0625 68.195312 186.515625 69.117188 185.980469 L 69.050781 185.84375 C 68.058594 186.242188 67.082031 186.679688 66.128906 187.164062 C 65.171875 187.648438 64.238281 188.183594 63.335938 188.785156 C 62.441406 189.390625 61.570312 190.0625 60.808594 190.890625 C 60.429688 191.308594 60.078125 191.769531 59.804688 192.308594 C 59.671875 192.578125 59.554688 192.867188 59.484375 193.179688 C 59.414062 193.492188 59.382812 193.824219 59.414062 194.160156 " fill-opacity="1" fill-rule="nonzero"/></g><g clip-path="url(#c93d504dbd)"><path fill="#0e5d38" d="M 116.59375 188.460938 C 116.59375 188.460938 116.597656 188.464844 116.601562 188.46875 C 116.628906 188.503906 116.652344 188.535156 116.691406 188.574219 C 116.816406 188.742188 116.863281 188.914062 116.90625 189.078125 C 116.992188 189.398438 116.964844 189.707031 116.871094 190 C 116.855469 190.050781 116.832031 190.101562 116.8125 190.148438 C 116.8125 190.152344 116.8125 190.15625 116.808594 190.15625 C 116.816406 190.15625 116.820312 190.152344 116.824219 190.148438 C 116.945312 190.101562 117.066406 190.050781 117.1875 190 C 117.558594 189.847656 117.925781 189.6875 118.292969 189.527344 C 119.242188 189.109375 120.179688 188.667969 121.101562 188.199219 C 122.0625 187.703125 123.011719 187.1875 123.9375 186.613281 C 124.863281 186.039062 125.769531 185.425781 126.625 184.730469 C 127.054688 184.378906 127.472656 184.011719 127.867188 183.609375 C 128.265625 183.207031 128.640625 182.773438 128.96875 182.285156 C 129.132812 182.039062 129.285156 181.777344 129.414062 181.5 C 129.542969 181.222656 129.652344 180.925781 129.722656 180.605469 C 129.789062 180.289062 129.816406 179.953125 129.78125 179.613281 C 129.769531 179.53125 129.757812 179.445312 129.742188 179.363281 L 129.730469 179.300781 L 129.714844 179.230469 L 129.683594 179.117188 C 129.632812 178.953125 129.574219 178.796875 129.5 178.644531 C 129.355469 178.34375 129.160156 178.078125 128.949219 177.847656 C 128.734375 177.617188 128.5 177.421875 128.257812 177.25 C 127.769531 176.910156 127.253906 176.660156 126.730469 176.457031 C 125.6875 176.054688 124.617188 175.820312 123.546875 175.65625 C 122.480469 175.492188 121.40625 175.410156 120.339844 175.363281 C 119.269531 175.324219 118.199219 175.324219 117.132812 175.371094 L 117.132812 175.523438 C 118.191406 175.617188 119.246094 175.722656 120.292969 175.871094 C 121.339844 176.011719 122.378906 176.195312 123.398438 176.433594 C 123.90625 176.554688 124.410156 176.691406 124.902344 176.847656 C 125.390625 177.007812 125.875 177.1875 126.328125 177.402344 C 126.78125 177.617188 127.214844 177.863281 127.582031 178.15625 C 127.945312 178.449219 128.242188 178.789062 128.394531 179.15625 C 128.429688 179.246094 128.460938 179.34375 128.480469 179.433594 L 128.496094 179.511719 L 128.507812 179.578125 C 128.511719 179.625 128.515625 179.671875 128.519531 179.71875 C 128.53125 179.914062 128.507812 180.109375 128.453125 180.308594 C 128.347656 180.710938 128.121094 181.113281 127.839844 181.496094 C 127.558594 181.875 127.222656 182.238281 126.859375 182.578125 C 126.496094 182.917969 126.105469 183.242188 125.699219 183.546875 C 124.882812 184.164062 124.011719 184.722656 123.117188 185.246094 C 122.21875 185.769531 121.300781 186.261719 120.363281 186.726562 C 119.890625 186.957031 119.421875 187.1875 118.945312 187.410156 C 118.679688 187.535156 118.40625 187.65625 118.136719 187.78125 C 117.929688 187.875 117.722656 187.964844 117.511719 188.058594 C 117.230469 188.183594 116.949219 188.308594 116.664062 188.429688 C 116.664062 188.429688 116.660156 188.433594 116.65625 188.433594 C 116.636719 188.441406 116.613281 188.453125 116.59375 188.460938 " fill-opacity="1" fill-rule="nonzero"/></g><g clip-path="url(#75dc8b144c)"><path fill="#0e5d38" d="M 59.414062 194.160156 C 59.445312 194.496094 59.539062 194.828125 59.679688 195.128906 C 59.824219 195.429688 60.015625 195.699219 60.222656 195.933594 C 60.648438 196.40625 61.144531 196.75 61.652344 197.03125 C 62.160156 197.3125 62.683594 197.53125 63.210938 197.714844 C 63.742188 197.902344 64.273438 198.046875 64.808594 198.171875 C 65.878906 198.425781 66.957031 198.589844 68.035156 198.699219 C 68.574219 198.753906 69.113281 198.796875 69.648438 198.824219 C 70.1875 198.855469 70.726562 198.871094 71.265625 198.875 C 72.105469 198.886719 72.945312 198.871094 73.78125 198.839844 C 74.320312 198.816406 74.863281 198.789062 75.402344 198.753906 C 76.164062 198.703125 76.925781 198.640625 77.683594 198.570312 C 78.953125 198.449219 80.222656 198.308594 81.484375 198.152344 C 81.996094 198.089844 82.507812 198.027344 83.019531 197.960938 C 83.359375 197.917969 83.699219 197.875 84.039062 197.828125 C 86.152344 197.554688 88.261719 197.253906 90.363281 196.925781 C 91.769531 196.703125 93.1875 196.476562 94.589844 196.238281 C 95 196.167969 95.382812 196.09375 95.835938 196.023438 L 95.835938 196.019531 L 95.855469 195.800781 L 95.425781 195.316406 L 95.421875 195.316406 C 95.140625 195.359375 94.859375 195.445312 94.578125 195.511719 C 93.152344 195.847656 91.71875 196.152344 90.277344 196.414062 C 88.191406 196.800781 86.089844 197.113281 83.980469 197.335938 C 83.832031 197.351562 83.6875 197.367188 83.539062 197.382812 C 83.464844 197.390625 83.390625 197.398438 83.3125 197.402344 C 83.28125 197.40625 83.246094 197.410156 83.210938 197.414062 C 83.160156 197.417969 83.109375 197.421875 83.058594 197.425781 C 83.011719 197.433594 82.960938 197.4375 82.910156 197.441406 C 82.871094 197.445312 82.835938 197.449219 82.796875 197.449219 C 82.707031 197.457031 82.617188 197.46875 82.527344 197.476562 C 82.527344 197.472656 82.527344 197.476562 82.523438 197.476562 C 82.394531 197.484375 82.265625 197.496094 82.136719 197.507812 C 82.007812 197.515625 81.878906 197.515625 81.75 197.527344 C 81.621094 197.535156 81.492188 197.542969 81.363281 197.542969 L 81.359375 197.542969 C 80.121094 197.667969 78.878906 197.683594 77.636719 197.703125 C 76.765625 197.71875 75.890625 197.707031 75.019531 197.707031 L 75.015625 197.707031 C 74.472656 197.707031 73.925781 197.707031 73.378906 197.667969 L 73.375 197.667969 C 72.683594 197.667969 71.996094 197.621094 71.3125 197.582031 C 71.046875 197.566406 70.785156 197.554688 70.527344 197.535156 C 70.265625 197.515625 70.003906 197.5 69.742188 197.476562 C 69.21875 197.429688 68.699219 197.386719 68.183594 197.324219 C 67.148438 197.207031 66.117188 197.054688 65.117188 196.835938 C 64.617188 196.722656 64.125 196.589844 63.644531 196.4375 C 63.167969 196.28125 62.703125 196.097656 62.273438 195.875 C 61.847656 195.652344 61.453125 195.390625 61.152344 195.082031 C 60.855469 194.765625 60.664062 194.417969 60.609375 194.027344 C 60.554688 193.640625 60.644531 193.214844 60.828125 192.792969 C 61.011719 192.371094 61.289062 191.960938 61.601562 191.574219 C 61.914062 191.183594 62.269531 190.816406 62.644531 190.464844 C 63.019531 190.113281 63.414062 189.777344 63.824219 189.453125 C 64.644531 188.804688 65.511719 188.207031 66.398438 187.632812 C 67.285156 187.0625 68.195312 186.515625 69.117188 185.980469 L 69.050781 185.84375 C 68.058594 186.242188 67.082031 186.679688 66.128906 187.164062 C 65.171875 187.648438 64.238281 188.183594 63.335938 188.785156 C 62.441406 189.390625 61.570312 190.0625 60.808594 190.890625 C 60.429688 191.308594 60.078125 191.769531 59.804688 192.308594 C 59.671875 192.578125 59.554688 192.867188 59.484375 193.179688 C 59.414062 193.492188 59.382812 193.824219 59.414062 194.160156 " fill-opacity="1" fill-rule="nonzero"/></g><g clip-path="url(#f96ab06045)"><path fill="#0e5d38" d="M 107.363281 203.863281 C 107.363281 203.867188 107.363281 203.867188 107.363281 203.867188 C 107.363281 203.871094 107.363281 203.871094 107.363281 203.875 L 107.378906 203.867188 C 107.375 203.867188 107.367188 203.867188 107.363281 203.863281 " fill-opacity="1" fill-rule="nonzero"/></g><path fill="#0e5d38" d="M 94.875 192.808594 L 95.855469 193.925781 L 96.121094 194.226562 L 96.773438 194.96875 L 96.980469 195.203125 C 97.039062 195.269531 97.121094 195.523438 97.113281 195.613281 L 97.101562 195.789062 C 97.105469 195.789062 97.113281 195.785156 97.113281 195.785156 L 97.113281 195.789062 L 96.988281 197.0625 L 96.988281 197.066406 L 96.824219 198.785156 C 96.800781 199.015625 96.949219 199.148438 97.152344 199.082031 C 97.359375 199.015625 97.585938 198.78125 97.65625 198.5625 L 98.226562 196.832031 L 98.605469 195.671875 L 100.625 195.09375 L 100.773438 195.050781 L 100.777344 195.050781 L 106.53125 193.410156 L 106.511719 193.628906 L 106.511719 193.632812 L 106.53125 193.632812 L 106.46875 194.933594 L 106.46875 194.941406 L 105.871094 202.695312 C 105.859375 202.859375 105.90625 202.984375 106.03125 202.984375 L 106.039062 202.984375 C 106.085938 202.984375 106.140625 202.976562 106.199219 202.960938 L 107.117188 202.65625 C 107.332031 202.589844 107.554688 202.359375 107.613281 202.140625 L 108.167969 200.085938 C 108.222656 200.09375 108.273438 200.0625 108.332031 200.042969 L 108.738281 199.910156 L 108.84375 199.875 C 109.058594 199.804688 109.203125 199.625 109.132812 199.410156 L 109.082031 199.253906 C 109.058594 199.183594 109.019531 199.121094 108.964844 199.066406 C 108.851562 198.957031 108.6875 198.890625 108.542969 198.941406 L 108.449219 198.96875 L 108.945312 197.183594 C 109 197.191406 109.070312 197.214844 109.125 197.195312 L 109.339844 197.128906 L 109.625 197.035156 C 109.839844 196.964844 109.960938 196.726562 109.890625 196.511719 L 109.839844 196.355469 C 109.796875 196.21875 109.671875 196.09375 109.527344 196.042969 C 109.453125 196.015625 109.375 196.007812 109.300781 196.03125 L 109.222656 196.058594 L 109.773438 194.039062 L 109.796875 193.949219 L 110.183594 192.53125 L 110.238281 192.332031 L 113.132812 191.542969 L 113.15625 191.539062 C 113.820312 191.347656 115.011719 190.640625 115.5 190 C 115.667969 189.78125 115.753906 189.570312 115.707031 189.390625 C 115.660156 189.226562 115.503906 189.101562 115.28125 189.011719 C 114.570312 188.726562 113.167969 188.804688 112.484375 189 C 112.472656 189.003906 111.425781 189.382812 109.894531 189.945312 C 109.847656 189.964844 109.796875 189.980469 109.746094 190 C 109.667969 190.027344 109.589844 190.058594 109.507812 190.085938 L 109.402344 190 L 109.332031 189.941406 L 108.351562 189.148438 L 106.484375 187.632812 L 106.558594 187.609375 C 106.773438 187.539062 106.902344 187.3125 106.832031 187.101562 L 106.78125 186.945312 C 106.710938 186.730469 106.492188 186.667969 106.277344 186.738281 L 105.78125 186.902344 C 105.722656 186.921875 105.660156 186.914062 105.617188 186.953125 L 104.144531 185.730469 L 104.238281 185.703125 C 104.449219 185.632812 104.582031 185.417969 104.515625 185.203125 L 104.464844 185.046875 C 104.394531 184.835938 104.148438 184.695312 103.933594 184.765625 L 103.417969 184.933594 C 103.359375 184.953125 103.3125 184.984375 103.269531 185.023438 L 101.613281 183.683594 C 101.4375 183.542969 101.113281 183.464844 100.902344 183.535156 L 99.980469 183.832031 C 99.765625 183.902344 99.71875 184.117188 99.863281 184.289062 L 104.691406 190 L 105.660156 191.152344 L 105.890625 191.421875 C 105.777344 191.460938 105.664062 191.503906 105.550781 191.542969 C 102.449219 192.683594 99.242188 193.859375 98.132812 194.265625 L 97.191406 193.585938 L 96.121094 192.816406 L 95.683594 192.5 C 95.492188 192.363281 95.171875 192.308594 94.96875 192.375 C 94.761719 192.441406 94.722656 192.636719 94.875 192.808594 " fill-opacity="1" fill-rule="nonzero"/><path fill="#0e5d38" d="M 94.875 192.808594 L 95.855469 193.925781 L 96.121094 194.226562 L 96.773438 194.96875 L 96.980469 195.203125 C 97.039062 195.269531 97.128906 195.523438 97.121094 195.613281 L 97.113281 195.785156 L 97.113281 195.789062 L 96.988281 197.0625 L 96.988281 197.066406 L 96.824219 198.785156 C 96.800781 199.015625 96.949219 199.148438 97.152344 199.082031 C 97.359375 199.015625 97.585938 198.78125 97.65625 198.5625 L 98.226562 196.832031 L 98.605469 195.671875 L 100.625 195.09375 L 100.773438 195.050781 L 100.777344 195.050781 L 106.53125 193.410156 L 106.511719 193.628906 L 106.511719 193.632812 L 106.53125 193.632812 L 106.46875 194.933594 L 106.46875 194.941406 L 105.871094 202.695312 C 105.859375 202.859375 105.90625 202.984375 106.03125 202.984375 L 106.039062 202.984375 C 106.085938 202.984375 106.140625 202.976562 106.199219 202.960938 L 107.117188 202.65625 C 107.332031 202.589844 107.554688 202.359375 107.613281 202.140625 L 108.167969 200.085938 C 108.222656 200.09375 108.273438 200.0625 108.332031 200.042969 L 108.738281 199.910156 L 108.84375 199.875 C 109.058594 199.804688 109.203125 199.625 109.132812 199.410156 L 109.082031 199.253906 C 109.058594 199.183594 109.019531 199.121094 108.964844 199.066406 C 108.851562 198.957031 108.6875 198.890625 108.542969 198.941406 L 108.449219 198.96875 L 108.945312 197.183594 C 109 197.191406 109.070312 197.214844 109.125 197.195312 L 109.339844 197.128906 L 109.625 197.035156 C 109.839844 196.964844 109.960938 196.726562 109.890625 196.511719 L 109.839844 196.355469 C 109.796875 196.21875 109.671875 196.09375 109.527344 196.042969 C 109.453125 196.015625 109.375 196.007812 109.300781 196.03125 L 109.222656 196.058594 L 109.773438 194.039062 L 109.796875 193.949219 L 110.183594 192.53125 L 110.238281 192.332031 L 113.132812 191.542969 L 113.15625 191.539062 C 113.820312 191.347656 115.011719 190.640625 115.5 190 C 115.667969 189.78125 115.753906 189.570312 115.707031 189.390625 C 115.660156 189.226562 115.503906 189.101562 115.28125 189.011719 C 114.570312 188.726562 113.167969 188.804688 112.484375 189 C 112.472656 189.003906 111.425781 189.382812 109.894531 189.945312 C 109.847656 189.964844 109.796875 189.980469 109.746094 190 C 109.667969 190.027344 109.589844 190.058594 109.507812 190.085938 L 109.402344 190 L 109.332031 189.941406 L 108.351562 189.148438 L 106.484375 187.632812 L 106.558594 187.609375 C 106.773438 187.539062 106.902344 187.3125 106.832031 187.101562 L 106.78125 186.945312 C 106.710938 186.730469 106.492188 186.667969 106.277344 186.738281 L 105.78125 186.902344 C 105.722656 186.921875 105.660156 186.914062 105.617188 186.953125 L 104.144531 185.730469 L 104.238281 185.703125 C 104.449219 185.632812 104.582031 185.417969 104.515625 185.203125 L 104.464844 185.046875 C 104.394531 184.835938 104.148438 184.695312 103.933594 184.765625 L 103.417969 184.933594 C 103.359375 184.953125 103.3125 184.984375 103.269531 185.023438 L 101.613281 183.683594 C 101.4375 183.542969 101.113281 183.464844 100.902344 183.535156 L 99.980469 183.832031 C 99.765625 183.902344 99.71875 184.117188 99.863281 184.289062 L 104.691406 190 L 105.660156 191.152344 L 105.890625 191.421875 C 105.777344 191.460938 105.664062 191.503906 105.550781 191.542969 C 102.449219 192.683594 99.242188 193.859375 98.132812 194.265625 L 97.191406 193.585938 L 96.121094 192.816406 L 95.683594 192.5 C 95.492188 192.363281 95.171875 192.308594 94.96875 192.375 C 94.761719 192.441406 94.722656 192.636719 94.875 192.808594 " fill-opacity="1" fill-rule="nonzero"/></svg>